<svg xmlns="http://www.w3.org/2000/svg" xmlns:xlink="http://www.w3.org/1999/xlink" width="1215" height="514"><defs><path d="M1215 398.884l-20.047-10.82a26.58 26.58 0 0 0-27.58 1.393l-54.964 37.265c-1.634 1.107-3.14 2.39-4.495 3.825l-70.236 75.04c-8.5 9.067-22.15 11.045-32.88 4.766l-39.26-22.987a26.65 26.65 0 0 0-7.852-3.079l-31.074-6.472c-5.245-1.102-10.035-3.76-13.74-7.63l-35.49-37.09a26.6 26.6 0 0 0-36.178-2.197L820.49 448a26.6 26.6 0 0 1-28.071 3.648l-53.12-24.418a26.42 26.42 0 0 1-7.852-5.59l-67.4-69.04a26.7 26.7 0 0 0-8.814-5.884l-59.243-24.654c-3.64-1.508-6.893-3.814-9.52-6.747l-7.008-7.845a26.28 26.28 0 0 0-26.834-7.63l-16.548 4.805c-7.106 2.058-14.747 1.078-21.102-2.707l-24.4-14.592c-4.655-2.792-10.35-3.25-15.4-1.236-4.984 1.974-10.63 1.27-14.978-1.863l-52.59-37.873a14.89 14.89 0 0 0-18.884 1.157c-5.24 4.886-13.177 5.473-19.08 1.412l-30.152-20.672-.275-.196-50.33-35.42c-1.708-1.206-3.553-2.207-5.496-2.98L152.718 137.76a26.66 26.66 0 0 1-8.166-5.119L0 0h1215v398.884z" id="A"/><filter x="-0.8%" y="-1.9%" width="101.6%" height="103.9%" id="B"><feGaussianBlur stdDeviation="7.5" in="SourceAlpha"/><feOffset dy="-5"/><feComposite in2="SourceAlpha" operator="arithmetic" k2="-1" k3="1"/><feColorMatrix values="0 0 0 0 0 0 0 0 0 0 0 0 0 0 0 0 0 0 0.35 0"/></filter></defs><g fill-rule="evenodd"><path d="M1215 398.884l-20.047-10.82a26.58 26.58 0 0 0-27.58 1.393l-54.964 37.265c-1.634 1.107-3.14 2.39-4.495 3.825l-70.236 75.04c-8.5 9.067-22.15 11.045-32.88 4.766l-39.26-22.987a26.65 26.65 0 0 0-7.852-3.079l-31.074-6.472c-5.245-1.102-10.035-3.76-13.74-7.63l-35.49-37.09a26.6 26.6 0 0 0-36.178-2.197L820.49 448a26.6 26.6 0 0 1-28.071 3.648l-53.12-24.418a26.42 26.42 0 0 1-7.852-5.59l-67.4-69.04a26.7 26.7 0 0 0-8.814-5.884l-59.243-24.654c-3.64-1.508-6.893-3.814-9.52-6.747l-7.008-7.845a26.28 26.28 0 0 0-26.834-7.63l-16.548 4.805c-7.106 2.058-14.747 1.078-21.102-2.707l-24.4-14.592c-4.655-2.792-10.35-3.25-15.4-1.236-4.984 1.974-10.63 1.27-14.978-1.863l-52.59-37.873a14.89 14.89 0 0 0-18.884 1.157c-5.24 4.886-13.177 5.473-19.08 1.412l-30.152-20.672-.275-.196-50.33-35.42c-1.708-1.206-3.553-2.207-5.496-2.98L152.718 137.76a26.66 26.66 0 0 1-8.166-5.119L0 0h1215v398.884z" fill="#fd8105"/><path d="M833.86 436.96l-1.41 1.164a2.78 2.78 0 0 0-2.072-.904v.02a2.78 2.78 0 0 0-2.21 4.42l-1.43 1.182a4.61 4.61 0 0 1-.969-2.812 4.71 4.71 0 0 1 .2-1.36l-5.93-3.43a6.12 6.12 0 0 1-4.12 2.56v5.05a4.62 4.62 0 0 1 3.677 4.99c-.036.36-.113.708-.227 1.04-1.652 1.223-3.42 2.235-5.265 3.032a4.62 4.62 0 0 1-.025-9.061v-5.05a6.14 6.14 0 0 1-4.23-2.73l-5.9 3.4a4.39 4.39 0 0 1 .27 1.55 4.64 4.64 0 0 1-8.965 1.676 4.64 4.64 0 0 1 7.745-4.816l6.07-3.5a6.28 6.28 0 0 1 .06-3.57l-6-3.46a4.58 4.58 0 0 1-3.53 1.65 4.61 4.61 0 0 1-2.755-8.309 4.61 4.61 0 0 1 7.165 5.029l5.94 3.43a6.16 6.16 0 0 1 4.11-2.55v-4.43a4.62 4.62 0 0 1 .92-9.147 4.62 4.62 0 0 1 .92 9.147v4.43a6.18 6.18 0 0 1 4 2.39l6-3.47a4.83 4.83 0 0 1-.14-1.15 4.63 4.63 0 0 1 7.911-3.267A4.63 4.63 0 0 1 830.38 428a4.61 4.61 0 0 1-3.66-1.82l-5.93 3.43a6 6 0 0 1 .36 2.08 6.16 6.16 0 0 1-.29 1.88l6 3.46a4.62 4.62 0 0 1 5.845-1.018c.444.257.832.58 1.156.948zm-316.04-133.553a26.71 26.71 0 0 1-2.832-1.465l-5.644-3.375a10.31 10.31 0 0 1 7.043 3.037c.552.555 1.03 1.16 1.433 1.803zm-12.664-7.345l-2.378-1.422c.045-2-.626-4.02-2.03-5.64l1.47-1.55a10.37 10.37 0 0 1 2.938 8.612zm-4.13-2.47l-1.252-.748.454-.454a.69.69 0 0 1 1 0 .68.68 0 0 1 .01.99l-.212.212zm-177.068-76.27l-8.838-6.22a2 2 0 0 0-1.932-1.484l-.166.007-1.44-1.014a3.4 3.4 0 0 1 .778-.292v-7.16l-8.36-4.82-5.417 3.123-1.967-1.385 6.835-3.95a1.08 1.08 0 0 1 1.1 0l9.45 5.44a1.12 1.12 0 0 1 .54.95v8a3.4 3.4 0 0 1 2 3.1l6.9 4a1.1 1.1 0 0 1 .51.95v.753zM47.753 0h4.257l-.2.06a32.38 32.38 0 0 0 2.1 4l1.22-2.9.576-1.17h1.742l-.898 1.84-1.58 3.87 2.63 3.5a44.29 44.29 0 0 0 4.12 4.27H63a43.37 43.37 0 0 0 4.34-.21 42.91 42.91 0 0 0 2.81-5.09 44.69 44.69 0 0 0 1.87-4.71H72A42 42 0 0 0 69.462 0h2.002L72.6 1.53 72.97 0h5.283C81.4 1.603 83.3 3.704 83.3 5.97c0 2.42-2.1 4.6-5.56 6.24.8 3.43.42 6.23-1.34 7.7-2.3 1.92-6.4 1.14-10.88-1.62-3.8 4.32-7.86 6.44-10.74 5.1-2.6-1.2-3.65-5-3.2-9.92-5.36-1.63-8.87-4.38-8.82-7.5 0-2.285 1.87-4.376 4.993-5.97zM192.62 0h2l-1.25 1.25a.68.68 0 0 1-1 0 .69.69 0 0 1 0-1l.25-.25zm3.92 0h2l-1.24 1.24a.69.69 0 0 1-1 0 .68.68 0 0 1 0-1l.24-.24zm4.126 0h13.662c.74.437 1.433.973 2.06 1.604a10.32 10.32 0 0 1 1.541 12.576 10.37 10.37 0 0 1 12.55 1.6L229 17.25c-3.264-3.245-8.54-3.23-11.785.035s-3.23 8.54.035 11.785l-1.47 1.48a10.37 10.37 0 0 1-1.6-12.55A10.32 10.32 0 0 1 200 3.82a10.37 10.37 0 0 1-12.48-1.6L189 .75a8.33 8.33 0 0 0 11.342-.408 8.44 8.44 0 0 0 .324-.342zm147.087 0h4.257l-.2.06a32.38 32.38 0 0 0 2.1 4 56.41 56.41 0 0 1 1.22-2.89 39.46 39.46 0 0 1 .576-1.17h1.742c-.312.598-.605 1.212-.898 1.84-.58 1.3-1.13 2.6-1.58 3.87a46.44 46.44 0 0 0 2.63 3.49 44.29 44.29 0 0 0 4.12 4.27H363a43.37 43.37 0 0 0 4.34-.21 42.91 42.91 0 0 0 2.81-5.09 44.69 44.69 0 0 0 1.87-4.71H372A42 42 0 0 0 369.462 0h2.002a35.64 35.64 0 0 1 1.126 1.53 29.68 29.68 0 0 0 .381-1.53h5.283c3.136 1.603 5.036 3.704 5.036 5.97 0 2.42-2.1 4.6-5.56 6.24.8 3.43.42 6.23-1.34 7.7-2.3 1.92-6.4 1.14-10.88-1.62-3.8 4.32-7.86 6.44-10.74 5.1-2.6-1.2-3.65-5-3.2-9.92-5.36-1.63-8.87-4.38-8.82-7.5 0-2.285 1.87-4.376 4.993-5.97zM492.62 0h2l-1.25 1.25a.68.68 0 0 1-1 0 .69.69 0 0 1 0-1l.25-.25zm3.92 0h2l-1.24 1.24a.69.69 0 0 1-1 0 .68.68 0 0 1 0-1l.24-.24zm4.126 0h13.662c.74.437 1.433.973 2.06 1.604a10.32 10.32 0 0 1 1.541 12.576 10.37 10.37 0 0 1 12.55 1.6L529 17.25c-3.264-3.245-8.54-3.23-11.785.035s-3.23 8.54.035 11.785l-1.47 1.48a10.37 10.37 0 0 1-1.6-12.55A10.32 10.32 0 0 1 500 3.82a10.37 10.37 0 0 1-12.48-1.6L489 .75a8.33 8.33 0 0 0 11.342-.408 8.44 8.44 0 0 0 .324-.342zm147.087 0h4.257l-.2.06a32.38 32.38 0 0 0 2.1 4 56.41 56.41 0 0 1 1.22-2.89 39.46 39.46 0 0 1 .576-1.17h1.742c-.312.598-.605 1.212-.898 1.84-.58 1.3-1.13 2.6-1.58 3.87a46.44 46.44 0 0 0 2.63 3.49 44.29 44.29 0 0 0 4.12 4.27H663a43.37 43.37 0 0 0 4.34-.21 42.91 42.91 0 0 0 2.81-5.09 44.69 44.69 0 0 0 1.87-4.71H672A42 42 0 0 0 669.462 0h2.002a35.64 35.64 0 0 1 1.126 1.53 29.68 29.68 0 0 0 .381-1.53h5.283c3.136 1.603 5.036 3.704 5.036 5.97 0 2.42-2.1 4.6-5.56 6.24.8 3.43.42 6.23-1.34 7.7-2.3 1.92-6.4 1.14-10.88-1.62-3.8 4.32-7.86 6.44-10.74 5.1-2.6-1.2-3.65-5-3.2-9.92-5.36-1.63-8.87-4.38-8.82-7.5 0-2.285 1.87-4.376 4.993-5.97zM792.62 0h2l-1.25 1.25a.68.68 0 0 1-1 0 .69.69 0 0 1 0-1l.25-.25zm3.92 0h2l-1.24 1.24a.69.69 0 0 1-1 0 .68.68 0 0 1 0-1l.24-.24zm4.88 0h12.91c.74.437 1.433.973 2.06 1.604a10.32 10.32 0 0 1 1.541 12.576 10.37 10.37 0 0 1 12.55 1.6L829 17.25c-2.11-2.1-5.182-2.912-8.056-2.133s-5.113 3.032-5.875 5.9.07 5.944 2.18 8.043l-1.47 1.48a10.37 10.37 0 0 1-1.6-12.55A10.32 10.32 0 0 1 800 3.82a10.37 10.37 0 0 1-12.48-1.6L789 .75c3.264 3.245 8.54 3.23 11.785-.035.228-.23.44-.468.635-.715zm146.334 0h4.257l-.2.06a32.38 32.38 0 0 0 2.1 4 56.41 56.41 0 0 1 1.22-2.89 39.46 39.46 0 0 1 .576-1.17h1.742c-.312.598-.605 1.212-.898 1.84-.58 1.3-1.13 2.6-1.58 3.87a46.44 46.44 0 0 0 2.63 3.49 44.29 44.29 0 0 0 4.12 4.27H963a43.37 43.37 0 0 0 4.34-.21 42.91 42.91 0 0 0 2.81-5.09 44.69 44.69 0 0 0 1.87-4.71H972A42 42 0 0 0 969.462 0h2.002a35.64 35.64 0 0 1 1.126 1.53 29.68 29.68 0 0 0 .381-1.53h5.283c3.136 1.603 5.036 3.704 5.036 5.97 0 2.42-2.1 4.6-5.56 6.24.8 3.43.42 6.23-1.34 7.7-2.3 1.92-6.4 1.14-10.88-1.62-3.8 4.32-7.86 6.44-10.74 5.1-2.6-1.2-3.65-5-3.2-9.92-5.36-1.63-8.87-4.38-8.82-7.5 0-2.285 1.87-4.376 4.993-5.97zm144.867 0h2l-1.25 1.25a.68.68 0 0 1-1 0 .69.69 0 0 1 0-1l.25-.25zm3.92 0h2l-1.24 1.24a.69.69 0 0 1-1 0 .68.68 0 0 1 0-1l.24-.24zm4.88 0h12.9c.74.437 1.433.973 2.06 1.604a10.32 10.32 0 0 1 1.541 12.576 10.37 10.37 0 0 1 12.55 1.6l-1.48 1.47c-3.264-3.245-8.54-3.23-11.785.035s-3.23 8.54.035 11.785l-1.47 1.48a10.37 10.37 0 0 1-1.6-12.55A10.32 10.32 0 0 1 1100 3.82a10.37 10.37 0 0 1-12.48-1.6L1089 .75c2.11 2.1 5.182 2.912 8.056 2.133A8.33 8.33 0 0 0 1101.419 0zM1215 208.772v1.997a2 2 0 0 0-1.81-1.149 2 2 0 1 0 0 4 2 2 0 0 0 1.81-1.148v1.966a3.38 3.38 0 0 1-4.15-.278l-3.85 2.22a3.38 3.38 0 0 1-2 3.06v4.7a3.39 3.39 0 0 1 2 3.07 3.26 3.26 0 0 1-.07.7l6.48 3.73 1.6-.917v2.568l-1.04.6a1.07 1.07 0 0 1-1.09 0l-7-4.06a3.4 3.4 0 0 1-4.13.23l-6.65 3.83a1.07 1.07 0 0 1-1.09 0l-9.45-5.44a1.1 1.1 0 0 1-.55-.95v-10.9a1.1 1.1 0 0 1 .55-1l6.9-4a3.4 3.4 0 0 1 2-3.1v-8a1.12 1.12 0 0 1 .54-.95l9.45-5.44a1.08 1.08 0 0 1 1.1 0l9.45 5.44a1.12 1.12 0 0 1 .54.95v8c.16.073.315.157.46.252zm-172 33.688h8.04l-.34 1.9v.03h-10.5a5.4 5.4 0 0 1 0-1.88v-.06h2.8zm0 3.94h6.9a5.34 5.34 0 0 1-5.37 2.3 5.53 5.53 0 0 1-1.53-.52 5.42 5.42 0 0 1-2-1.78h2zm0 99.3l8.8 8.8-2.02 2.03-1.2-1.22-21.82 21.82a6.29 6.29 0 0 1-10.694-2.733 6.29 6.29 0 0 1 1.804-6.157l21.82-21.82-1.22-1.2 2.03-2.02 2.5 2.5zm0 4.85l-2.5-2.5-21.42 21.4c-1.156 1.156-1.607 2.84-1.184 4.42s1.656 2.812 3.235 3.235 3.263-.028 4.42-1.184l21.4-21.42-3.95-3.95zm0-304.85l8.8 8.8-2.02 2.03-1.2-1.22-21.82 21.82a6.29 6.29 0 0 1-10.694-2.733 6.29 6.29 0 0 1 1.804-6.157l21.82-21.82-1.22-1.2 2.03-2.02 2.5 2.5zm0 4.85l-2.5-2.5-21.42 21.4c-1.787 1.787-1.787 4.683 0 6.47s4.683 1.787 6.47 0l21.4-21.42-3.95-3.95zM63.3 2.05a3.46 3.46 0 0 1 3.44 3.49 3.49 3.49 0 0 1-5.976 2.45 3.49 3.49 0 0 1 2.536-5.94zm-7.87 19.9V22c2.1.93 5.45-.88 8.76-4.58A35.81 35.81 0 0 1 61.11 15a40.21 40.21 0 0 1-8-1.11c-.35 4.13.46 7.2 2.33 8.06zm17.64-16.8c-.44 1.2-.94 2.44-1.52 3.67A42.06 42.06 0 0 1 69.34 13a30.68 30.68 0 0 0 6.53-1.69 29.64 29.64 0 0 0-2.79-6.15zm-18.72 2.4a35 35 0 0 0-1.12 4.75 38.29 38.29 0 0 0 6 1c-.98-.97-1.95-2-2.88-3.13l-2-2.62zm10.85 8.65c.33-.4.66-.85 1-1.3-.85.1-1.72.1-2.6.1a31.58 31.58 0 0 0 1.61 1.19zm10.16 2.48c1.22-1.03 1.5-3.16.87-5.87a33.9 33.9 0 0 1-8 1.9c-.55.83-1.13 1.6-1.7 2.35 3.84 2.32 7.18 3 8.84 1.62zM74.54.16a40.04 40.04 0 0 1-.81 3.07 31.83 31.83 0 0 1 3.58 7.45c2.75-1.33 4.4-3 4.4-4.7 0-2.2-2.8-4.37-7.17-5.8zM50.32.52v.04C46.6 2 44.3 4 44.3 5.97c0 2.27 2.93 4.5 7.5 5.92a35.58 35.58 0 0 1 1.46-6A35.78 35.78 0 0 1 50.32.52zM125 74.72h.02A3.34 3.34 0 0 1 120.3 70l15-15 4.7 4.72-15 15zm1.75 2.42l.01.01a6.29 6.29 0 0 1-8.89-8.89l21.82-21.82-1.22-1.2 2-2 11.3 11.3-2 2-1.2-1.22-21.82 21.82zm-7.68-7.68v.1c-1.787 1.787-1.787 4.683 0 6.47s4.683 1.787 6.47 0L147 54.56l-6.5-6.5-21.42 21.4zM363.3 2.05a3.46 3.46 0 0 1 3.44 3.49 3.49 3.49 0 0 1-5.976 2.45 3.49 3.49 0 0 1 2.536-5.94zm-7.87 19.9V22c2.1.93 5.45-.88 8.76-4.58a35.81 35.81 0 0 1-3.09-2.42 40.21 40.21 0 0 1-8-1.11c-.35 4.13.46 7.2 2.33 8.06zm17.64-16.8c-.44 1.2-.94 2.44-1.52 3.67a42.06 42.06 0 0 1-2.22 4.17 30.68 30.68 0 0 0 6.53-1.69 29.64 29.64 0 0 0-2.79-6.15zm-18.72 2.4a35 35 0 0 0-1.12 4.75 38.29 38.29 0 0 0 6 1c-.98-.97-1.95-2-2.88-3.13l-2-2.62zm10.85 8.65c.33-.4.66-.85 1-1.3-.85.1-1.72.1-2.6.1a31.58 31.58 0 0 0 1.61 1.19zm10.16 2.48c1.22-1.03 1.5-3.16.87-5.87a33.9 33.9 0 0 1-8 1.9c-.55.83-1.13 1.6-1.7 2.35 3.84 2.32 7.18 3 8.84 1.62zM374.54.16a40.04 40.04 0 0 1-.81 3.07 31.83 31.83 0 0 1 3.58 7.45c2.75-1.33 4.4-3 4.4-4.7 0-2.2-2.8-4.37-7.17-5.8zm-24.22.36v.04C346.6 2 344.3 4 344.3 5.97c0 2.27 2.93 4.5 7.5 5.92a35.58 35.58 0 0 1 1.46-6 35.78 35.78 0 0 1-2.92-5.37zM425 74.72h.02A3.34 3.34 0 0 1 420.3 70l15-15 4.7 4.72-15 15zm1.75 2.42l.01.01a6.29 6.29 0 0 1-8.89-8.89l21.82-21.82-1.22-1.2 2-2 11.3 11.3-2 2-1.2-1.22-21.82 21.82zm-7.68-7.68v.1c-1.787 1.787-1.787 4.683 0 6.47s4.683 1.787 6.47 0L447 54.56l-6.5-6.5-21.42 21.4zM217.76 21.7a.68.68 0 0 1-.99-.01.69.69 0 0 1 0-1l3.93-3.93a.69.69 0 0 1 1 0 .68.68 0 0 1 0 1l-3.94 3.94zM207 13.9l6.88-6.88c.276-.276.724-.276 1 0s.276.724 0 1L208 14.9c-.276.276-.724.276-1 0s-.276-.724 0-1zm9.77 11.7a.68.68 0 0 1-.01-.99l7.87-7.87a.68.68 0 0 1 1 0 .69.69 0 0 1 0 1l-7.86 7.86a.69.69 0 0 1-1 0zM203.1 3.15h.04a8.3 8.3 0 0 0-.04 11.74 8.27 8.27 0 0 0 11.681-11.71 8.27 8.27 0 0 0-11.681-.03zm.5 4.4a.69.69 0 0 1-1.01.01.68.68 0 0 1 0-1l3.94-3.94a.68.68 0 0 1 1 0 .69.69 0 0 1 0 1l-3.93 3.93zm.48 3.45h.02c-.276.276-.724.276-1 0s-.276-.724 0-1L210 3.1c.276-.276.724-.276 1 0s.276.724 0 1l-6.9 6.9zm-.01 2.9a.68.68 0 0 1 0-1l8.85-8.85c.276-.276.724-.276 1 0s.276.724 0 1l-8.85 8.85a.68.68 0 0 1-1 0zm10.3-3.46a.69.69 0 0 1 1.01-.01.68.68 0 0 1 0 1l-3.94 3.94a.68.68 0 0 1-1 0 .69.69 0 0 1 0-1l3.93-3.93zm63.87 59.7v-.04a3.33 3.33 0 0 1-3.57-4.75l5.07-10.28a9 9 0 0 1 4.43-1.68c3.26-.57 4.64 1.58 7.64 1.06a9.72 9.72 0 0 0 5-2.39L305.1 60a3.33 3.33 0 0 1-1.73 5.73l-25.12 4.43zm20.5-9c-.357.06-.655.307-.78.647s-.06.72.17 1 .594.414.95.353.655-.307.78-.647.06-.72-.17-1-.594-.414-.95-.353zm-4.53-4.57h0a1.33 1.33 0 0 0-1.09 1.51 1.32 1.32 0 0 0 2.603-.443 1.32 1.32 0 0 0-1.513-1.087zM289 61.55a2 2 0 0 0-.099 3.922 2 2 0 0 0 2.131-3.02A2 2 0 0 0 289 61.55zm-5.84-4.33a1.65 1.65 0 0 0-1 2.695 1.65 1.65 0 0 0 1.57.555 1.65 1.65 0 0 0 1-2.695 1.65 1.65 0 0 0-1.57-.555zm-3.45 7.32h.01a1 1 0 0 0-.83 1.2 1 1 0 0 0 1.16.8c.357-.06.655-.307.78-.647s.06-.72-.17-1-.594-.414-.95-.353zm-1.45 8.98a6.65 6.65 0 0 1-7.72-5.38 6.53 6.53 0 0 1 .63-4.14l9.14-17.7-1.72-9.76-2 .35-.46-2.6 16.4-2.9.46 2.6-1.36.23 1.72 9.77 14.57 13.55a6.57 6.57 0 0 1 .3 9.34 6.69 6.69 0 0 1-3.71 2l-26.26 4.63zm-5.3-8.6h-.1a4.62 4.62 0 0 0 5 6.65l26.26-4.63a4.72 4.72 0 0 0 2.6-1.4 4.6 4.6 0 0 0-.21-6.54l-15-14-1.84-10.4-9.2 1.62 1.83 10.42-9.36 18.3zm382.5-42.97V22c2.1.93 5.45-.88 8.76-4.58a35.81 35.81 0 0 1-3.09-2.42 40.21 40.21 0 0 1-8-1.11c-.35 4.13.46 7.2 2.33 8.06zm17.64-16.8c-.44 1.2-.94 2.44-1.52 3.67a42.06 42.06 0 0 1-2.22 4.17 30.68 30.68 0 0 0 6.53-1.69 29.64 29.64 0 0 0-2.79-6.15zm-18.72 2.4a35 35 0 0 0-1.07 4.75 38.29 38.29 0 0 0 6 1c-.98-.97-1.95-2-2.88-3.13a47.89 47.89 0 0 1-2.05-2.62zm10.85 8.65c.33-.4.66-.85 1-1.3-.85.1-1.72.1-2.6.1a31.58 31.58 0 0 0 1.61 1.19zm10.16 2.48c1.22-1.03 1.5-3.16.87-5.87a33.9 33.9 0 0 1-8 1.9c-.55.83-1.13 1.6-1.7 2.35 3.84 2.32 7.18 3 8.84 1.62zM674.54.16a40.04 40.04 0 0 1-.81 3.07 31.83 31.83 0 0 1 3.58 7.45c2.75-1.33 4.4-3 4.4-4.7 0-2.2-2.8-4.37-7.17-5.8zm-24.22.36v.04C646.6 2 644.3 4 644.3 5.97c0 2.27 2.93 4.5 7.5 5.92a35.58 35.58 0 0 1 1.46-6 35.78 35.78 0 0 1-2.92-5.37zm13 1.53a3.46 3.46 0 0 1 3.44 3.49 3.49 3.49 0 0 1-5.976 2.45 3.49 3.49 0 0 1 2.536-5.94zM725 74.72h.02a3.34 3.34 0 0 1-5.688-1.446A3.34 3.34 0 0 1 720.3 70l15-15 4.7 4.72-15 15zm1.75 2.42l.01.01a6.29 6.29 0 0 1-10.694-2.733 6.29 6.29 0 0 1 1.804-6.157l21.82-21.82-1.22-1.2 2-2 11.3 11.3-2 2-1.2-1.22-21.82 21.82zm-7.68-7.68v.1c-1.156 1.156-1.607 2.84-1.184 4.42s1.656 2.812 3.235 3.235 3.263-.028 4.42-1.184L747 54.56l-6.5-6.5-21.42 21.4zM503.62 7.55a.69.69 0 0 1-1.01.01.68.68 0 0 1 0-1l3.94-3.94a.68.68 0 0 1 1 0 .69.69 0 0 1 0 1l-3.93 3.93zm-.5-4.4h.04a8.3 8.3 0 0 0-.04 11.74 8.27 8.27 0 0 0 11.681-11.71 8.27 8.27 0 0 0-11.681-.03zm13.66 22.46a.68.68 0 0 1-.01-.99l7.87-7.87a.68.68 0 0 1 1 0 .69.69 0 0 1 0 1l-7.86 7.86a.69.69 0 0 1-1 0zM504.1 11h.02c-.18.18-.44.248-.683.183s-.435-.256-.5-.5.004-.504.183-.683L510 3.1c.18-.18.44-.248.683-.183s.435.256.5.5-.004.504-.183.683l-6.9 6.9zm2.9 2.9l6.88-6.88c.276-.276.724-.276 1 0s.276.724 0 1L508 14.9c-.18.18-.44.248-.683.183s-.435-.256-.5-.5.004-.504.183-.683zm-2.9.01a.68.68 0 0 1 0-1l8.85-8.85c.18-.18.44-.248.683-.183s.435.256.5.5-.004.504-.183.683l-8.85 8.85a.68.68 0 0 1-1 0zm10.3-3.46a.69.69 0 0 1 1.01-.01.68.68 0 0 1 0 1l-3.94 3.94a.68.68 0 0 1-1 0 .69.69 0 0 1 0-1l3.93-3.93zm3.38 11.25a.68.68 0 0 1-.99-.01.69.69 0 0 1 0-1l3.93-3.93a.69.69 0 0 1 1 0 .68.68 0 0 1 0 1l-3.94 3.94zm60.5 51.82a6.65 6.65 0 0 1-7.72-5.38 6.53 6.53 0 0 1 .63-4.14l9.14-17.7-1.72-9.76-2 .35-.46-2.6 16.4-2.9.46 2.6-1.36.23 1.72 9.77 14.57 13.55a6.57 6.57 0 0 1 .3 9.34 6.69 6.69 0 0 1-3.71 2l-26.26 4.63zm-5.3-8.6l-.1.01a4.62 4.62 0 0 0 5 6.65l26.26-4.63a4.72 4.72 0 0 0 2.6-1.4 4.6 4.6 0 0 0-.21-6.54l-15-14-1.84-10.42-9.2 1.62 1.83 10.42-9.36 18.3zm5.3 5.24a3.33 3.33 0 0 1-3.57-4.75l5.07-10.28a9 9 0 0 1 4.43-1.68c3.26-.57 4.64 1.58 7.64 1.06a9.72 9.72 0 0 0 5-2.39l8.28 7.92a3.33 3.33 0 0 1-1.73 5.69l-25.12 4.43zm20.5-9c-.357.06-.655.307-.78.647s-.06.72.17 1 .594.414.95.353.655-.307.78-.647.06-.72-.17-1-.594-.414-.95-.353zm-4.53-4.57h0a1.33 1.33 0 0 0-1.09 1.51 1.32 1.32 0 0 0 2.603-.443 1.32 1.32 0 0 0-1.513-1.087zM589 61.53v.02a2 2 0 0 0-1.62 2.29 2 2 0 0 0 3.605.814 2 2 0 0 0-1.975-3.124zm-5.84-4.33a1.65 1.65 0 0 0-1 2.695 1.65 1.65 0 0 0 1.57.555 1.65 1.65 0 0 0 1-2.695 1.65 1.65 0 0 0-1.57-.555zm-3.45 7.32v.02a1 1 0 0 0-.82 1.18 1 1 0 0 0 1.16.8c.552-.094.924-.618.83-1.17s-.618-.924-1.17-.83zM963.3 2.05a3.46 3.46 0 0 1 3.44 3.49 3.49 3.49 0 0 1-5.976 2.45 3.49 3.49 0 0 1 2.536-5.94zm-7.87 19.9V22c2.1.93 5.45-.88 8.76-4.58a35.81 35.81 0 0 1-3.09-2.42 40.21 40.21 0 0 1-8-1.11c-.35 4.13.46 7.2 2.33 8.06zm17.64-16.8c-.44 1.2-.94 2.44-1.52 3.67a42.06 42.06 0 0 1-2.22 4.17 30.68 30.68 0 0 0 6.53-1.69 29.64 29.64 0 0 0-2.79-6.15zm-18.72 2.4a35 35 0 0 0-1.07 4.75 38.29 38.29 0 0 0 6 1c-.98-.97-1.95-2-2.88-3.13a47.89 47.89 0 0 1-2.05-2.62zm10.85 8.65c.33-.4.66-.85 1-1.3-.85.1-1.72.1-2.6.1a31.58 31.58 0 0 0 1.61 1.19zm10.16 2.48c1.22-1.03 1.5-3.16.87-5.87a33.9 33.9 0 0 1-8 1.9c-.55.83-1.13 1.6-1.7 2.35 3.84 2.32 7.18 3 8.84 1.62zM974.54.16a40.04 40.04 0 0 1-.81 3.07 31.83 31.83 0 0 1 3.58 7.45c2.75-1.33 4.4-3 4.4-4.7 0-2.2-2.8-4.37-7.17-5.8zm-24.22.36v.04C946.6 2 944.3 4 944.3 5.97c0 2.27 2.93 4.5 7.5 5.92a35.58 35.58 0 0 1 1.46-6 35.78 35.78 0 0 1-2.92-5.37zm69.96 74.2a3.34 3.34 0 0 1 .02-4.72l15-15 4.7 4.72-15 15a3.34 3.34 0 0 1-4.72 0zM807 13.9l6.88-6.88c.276-.276.724-.276 1 0s.276.724 0 1L808 14.9c-.276.276-.724.276-1 0s-.276-.724 0-1zm-2.9-2.9c-.276.276-.724.276-1 0s-.276-.724 0-1l6.88-6.88c.18-.18.44-.248.683-.183s.435.256.5.5-.004.504-.183.683L804.1 11zm10.28-.55a.69.69 0 0 1 1.01-.01.68.68 0 0 1 0 1l-3.94 3.94a.68.68 0 0 1-1 0 .69.69 0 0 1 0-1l3.93-3.93zm2.4 15.16a.68.68 0 0 1-.01-.99l7.87-7.87a.68.68 0 0 1 1 0 .69.69 0 0 1 0 1l-7.86 7.86a.69.69 0 0 1-1 0zM803.1 3.15h.04a8.3 8.3 0 0 0-.04 11.74 8.27 8.27 0 0 0 11.681-11.71 8.27 8.27 0 0 0-11.681-.03zm.98 10.76a.68.68 0 0 1 0-1l8.85-8.85c.276-.276.724-.276 1 0s.276.724 0 1l-8.85 8.85a.68.68 0 0 1-1 0zm-.47-6.36a.69.69 0 0 1-1.01.01.68.68 0 0 1 0-1l3.94-3.94a.68.68 0 0 1 1 0 .69.69 0 0 1 0 1l-3.93 3.93zm14.14 14.15a.68.68 0 0 1-.99-.01.69.69 0 0 1 0-1l3.93-3.93a.69.69 0 0 1 1 0 .68.68 0 0 1 0 1l-3.94 3.94zm60.5 51.82a6.65 6.65 0 0 1-7.72-5.38 6.53 6.53 0 0 1 .63-4.14l9.14-17.7-1.72-9.76-2 .35-.46-2.6 16.4-2.9.46 2.6-1.36.23 1.72 9.77 14.57 13.55a6.57 6.57 0 0 1 .3 9.34 6.69 6.69 0 0 1-3.71 2l-26.26 4.63zm-5.3-8.6l-.1.01a4.62 4.62 0 0 0 5 6.65l26.26-4.63a4.72 4.72 0 0 0 2.6-1.4 4.6 4.6 0 0 0-.21-6.54l-15-14-1.84-10.42-9.2 1.62 1.83 10.42-9.36 18.3zm5.3 5.24a3.33 3.33 0 0 1-3.57-4.75l5.07-10.28a9 9 0 0 1 4.43-1.68c3.26-.57 4.64 1.58 7.64 1.06a9.72 9.72 0 0 0 5-2.39l8.28 7.92a3.33 3.33 0 0 1-1.73 5.69l-25.12 4.43zm20.5-9c-.357.06-.655.307-.78.647s-.06.72.17 1 .594.414.95.353.655-.307.78-.647.06-.72-.17-1-.594-.414-.95-.353zm-4.53-4.57h0a1.33 1.33 0 0 0-1.09 1.51 1.32 1.32 0 0 0 2.603-.443 1.32 1.32 0 0 0-1.513-1.087zM889 61.53v.02a2 2 0 0 0-1.62 2.29 2 2 0 0 0 3.605.814 2 2 0 0 0-1.975-3.124zm-5.84-4.33a1.65 1.65 0 0 0-1 2.695 1.65 1.65 0 0 0 1.57.555 1.65 1.65 0 0 0 1-2.695 1.65 1.65 0 0 0-1.57-.555zm-3.45 7.32v.02a1 1 0 0 0-.82 1.18 1 1 0 0 0 1.16.8c.357-.06.655-.307.78-.647s.06-.72-.17-1-.594-.414-.95-.353zM395.67 161v2H397v2h-40v-2h1.33v-2h2v-2h1.34v-18H359v-2h36v2h-2.67v18h1.34v2h2zm-25.34-2v-18h-4.66v18h4.66zm9.34 0v-18h-5.34v18h5.34zm8.66 0v-18h-4.66v18h4.66zM357 137l20-12 20 12h-40zm-126.62-9a4.61 4.61 0 0 1-3.67-1.83l-5.93 3.43a6 6 0 0 1 .36 2.08 6.16 6.16 0 0 1-.29 1.88l6 3.46a4.62 4.62 0 0 1 7.872 4.558 4.62 4.62 0 0 1-8.962-1.558 4.71 4.71 0 0 1 .2-1.36l-5.93-3.43a6.12 6.12 0 0 1-4.12 2.56v5.05a4.62 4.62 0 0 1-.92 9.147 4.62 4.62 0 0 1-.92-9.147v-5.05a6.14 6.14 0 0 1-4.23-2.73l-5.9 3.4a4.39 4.39 0 0 1 .27 1.55 4.64 4.64 0 0 1-8.965 1.676A4.64 4.64 0 0 1 203 136.88l6.06-3.5a6.28 6.28 0 0 1 .06-3.57l-6-3.46a4.58 4.58 0 0 1-3.53 1.65 4.61 4.61 0 0 1-2.755-8.309A4.61 4.61 0 0 1 204 124.71l5.96 3.44a6.16 6.16 0 0 1 4.11-2.55v-4.43a4.62 4.62 0 0 1 .92-9.147 4.62 4.62 0 0 1 .92 9.147v4.43a6.18 6.18 0 0 1 4 2.39l6-3.47a4.83 4.83 0 0 1-.14-1.15 4.63 4.63 0 0 1 7.911-3.267A4.63 4.63 0 0 1 230.38 128zm0-7.4h0a2.77 2.77 0 0 0-2.76 2.78 2.78 2.78 0 0 0 4.749 1.972 2.78 2.78 0 0 0-1.989-4.742zm-30.76 5.55v-.01a2.77 2.77 0 0 0 2.76-2.77 2.78 2.78 0 0 0-4.753-1.959 2.78 2.78 0 0 0 1.993 4.739zm0 16.66h0a2.78 2.78 0 0 0 1.039-5.34 2.78 2.78 0 0 0-3.622 3.648 2.78 2.78 0 0 0 2.583 1.702zm18.15 4.57v-.01a2.77 2.77 0 0 0-5.54-.003 2.77 2.77 0 0 0 5.54.013zm-2.77-28v.02a2.77 2.77 0 0 0 2.77-2.79 2.78 2.78 0 0 0-4.746-1.976A2.78 2.78 0 0 0 215 119.38zm15.38 17.84v.02a2.78 2.78 0 0 0-2.76 2.76 2.78 2.78 0 0 0 4.753 1.959 2.78 2.78 0 0 0-1.993-4.739zM441 246.4h8.9a5.34 5.34 0 0 1-5.37 2.3 5.53 5.53 0 0 1-1.53-.52 5.42 5.42 0 0 1-2-1.78zm222.3 55.65a3.46 3.46 0 0 1 3.44 3.49 3.49 3.49 0 0 1-5.976 2.45 3.49 3.49 0 0 1 2.536-5.94zm-11.73 11.42c-5.36-1.63-8.87-4.38-8.82-7.5 0-2.74 2.7-5.2 7-6.86-1.68-4.58-1.62-8.46.56-10.3 2.4-2.02 6.85-1.05 11.6 2.1 3.58-3.77 7.3-5.55 10-4.3 2.92 1.38 3.92 6.08 2.92 12 5.12 1.65 8.45 4.36 8.45 7.36 0 2.42-2.1 4.6-5.56 6.24.8 3.43.42 6.23-1.34 7.7-2.3 1.92-6.4 1.14-10.88-1.62-3.8 4.32-7.86 6.44-10.74 5.1-2.6-1.2-3.65-5-3.2-9.92zm3.86 8.48v.05c2.1.93 5.45-.88 8.76-4.58a35.81 35.81 0 0 1-3.09-2.42 40.21 40.21 0 0 1-8-1.11c-.35 4.13.46 7.2 2.33 8.06zm17.15-20.42a27.87 27.87 0 0 0 .44-1.81 28.54 28.54 0 0 0-2.19-.51c.62.77 1.2 1.54 1.75 2.32zm.5 3.63c-.44 1.2-.94 2.44-1.52 3.67a42.06 42.06 0 0 1-2.22 4.17 30.68 30.68 0 0 0 6.53-1.69 29.64 29.64 0 0 0-2.79-6.15zm-1.06-1.7H672a42 42 0 0 0-2.91-3.91l-.6-.72a43.53 43.53 0 0 0-5.48-.35 42.22 42.22 0 0 0-4.86.28c-.6.98-1.1 2-1.6 3.08-.58 1.3-1.13 2.6-1.58 3.87a46.44 46.44 0 0 0 2.63 3.49 44.29 44.29 0 0 0 4.12 4.27H663a43.37 43.37 0 0 0 4.34-.21 42.91 42.91 0 0 0 2.81-5.09 44.69 44.69 0 0 0 1.87-4.71zm-16.9-2.3c.35-.74.7-1.45 1.08-2.1a32 32 0 0 0-4.4 1 32.38 32.38 0 0 0 2.1 4 56.41 56.41 0 0 1 1.22-2.89zm-.77 6.4a35 35 0 0 0-1.07 4.75 38.29 38.29 0 0 0 6 1c-.98-.97-1.95-2-2.88-3.13a47.89 47.89 0 0 1-2.05-2.62zm10.85 8.65c.33-.4.66-.85 1-1.3-.85.1-1.72.1-2.6.1a31.58 31.58 0 0 0 1.61 1.19zm10.16 2.48c1.22-1.03 1.5-3.16.87-5.87a33.9 33.9 0 0 1-8 1.9c-.55.83-1.13 1.6-1.7 2.35 3.84 2.32 7.18 3 8.84 1.62zm-.83-18.54a40.04 40.04 0 0 1-.81 3.07 31.83 31.83 0 0 1 3.58 7.45c2.75-1.33 4.4-3 4.4-4.7 0-2.2-2.8-4.37-7.17-5.8zm-3.3-12.1c-1.94-.9-4.97.6-8 3.77a40.29 40.29 0 0 1 6 5.53 39 39 0 0 1 4.07.82c.84-5.12.1-9.12-2.08-10.12zm-9.1 4.93v.02a36.6 36.6 0 0 0-3.01 4.08 44.06 44.06 0 0 1 7.72 0 37.48 37.48 0 0 0-4.71-4.1zM651.32 290c-1.6 1.38-1.57 4.62-.14 8.55a35.21 35.21 0 0 1 6-1.3 37 37 0 0 1 3.67-5.2c-4.1-2.67-7.77-3.53-9.53-2.05zm-1 10.52v.04c-3.7 1.44-6.03 3.44-6.03 5.4 0 2.27 2.93 4.5 7.5 5.92a35.58 35.58 0 0 1 1.46-6 35.78 35.78 0 0 1-2.92-5.37zm76.43 76.62l.01.01a6.29 6.29 0 0 1-10.694-2.733 6.29 6.29 0 0 1 1.804-6.157l21.82-21.82-1.22-1.2 2-2 11.3 11.3-2 2-1.2-1.22-21.82 21.82zm-7.68-7.68v.1c-1.156 1.156-1.607 2.84-1.184 4.42s1.656 2.812 3.235 3.235 3.263-.028 4.42-1.184L747 354.56l-6.5-6.5-21.42 21.4zm5.93 5.26h.02a3.34 3.34 0 0 1-5.688-1.446A3.34 3.34 0 0 1 720.3 370l15-15 4.7 4.72-15 15zM695.67 161v2H697v2h-40v-2h1.33v-2h2v-2h1.34v-18H659v-2h36v2h-2.67v18h1.34v2h2zm-25.34-2v-18h-4.66v18h4.66zm9.34 0v-18h-5.34v18h5.34zm8.66 0v-18h-4.66v18h4.66zM657 137l20-12 20 12h-40zm-126.62-9a4.61 4.61 0 0 1-3.67-1.83l-5.93 3.43a6 6 0 0 1 .36 2.08 6.16 6.16 0 0 1-.29 1.88l6 3.46a4.62 4.62 0 0 1 7.872 4.558 4.62 4.62 0 0 1-8.962-1.558 4.71 4.71 0 0 1 .2-1.36l-5.93-3.43a6.12 6.12 0 0 1-4.12 2.56v5.05a4.62 4.62 0 0 1-.92 9.147 4.62 4.62 0 0 1-.92-9.147v-5.05a6.14 6.14 0 0 1-4.23-2.73l-5.9 3.4a4.39 4.39 0 0 1 .27 1.55 4.64 4.64 0 0 1-8.965 1.676A4.64 4.64 0 0 1 503 136.88l6.06-3.5a6.28 6.28 0 0 1 .06-3.57l-6-3.46a4.58 4.58 0 0 1-3.53 1.65 4.61 4.61 0 0 1-2.755-8.309A4.61 4.61 0 0 1 504 124.71l5.96 3.44a6.16 6.16 0 0 1 4.11-2.55v-4.43a4.62 4.62 0 0 1 .92-9.147 4.62 4.62 0 0 1 .92 9.147v4.43a6.18 6.18 0 0 1 4 2.39l6-3.47a4.83 4.83 0 0 1-.14-1.15 4.63 4.63 0 0 1 7.911-3.267A4.63 4.63 0 0 1 530.38 128zm0-7.4h0a2.77 2.77 0 0 0-2.76 2.78 2.78 2.78 0 0 0 4.749 1.972 2.78 2.78 0 0 0-1.989-4.742zm-30.76 5.55v-.01a2.77 2.77 0 0 0 2.76-2.77 2.78 2.78 0 0 0-4.753-1.959 2.78 2.78 0 0 0 1.993 4.739zm0 16.66h0a2.78 2.78 0 0 0 1.039-5.34 2.78 2.78 0 0 0-3.622 3.648 2.78 2.78 0 0 0 2.583 1.702zm18.15 4.57v-.01a2.77 2.77 0 0 0-5.54-.003 2.77 2.77 0 0 0 5.54.013zm-2.77-28v.02a2.77 2.77 0 0 0 2.77-2.79 2.78 2.78 0 0 0-4.746-1.976A2.78 2.78 0 0 0 515 119.38zm15.38 17.84v.02a2.78 2.78 0 0 0-2.76 2.76 2.78 2.78 0 0 0 4.753 1.959 2.78 2.78 0 0 0-1.993-4.739zM450.7 244.37v.03h-10.5a5.4 5.4 0 0 1 0-1.88v-.06h10.83l-.34 1.9zm.77-35.07c7.25 1.28 10.9 7.38 9.7 13.9a1.55 1.55 0 0 0 0 .21c-.553 3.12-3.77 8.57-9.65 16.35l-.13.7h-10.83l.45-2.54c-2.813-9.153-3.983-15.317-3.5-18.5l.07-.4a11.56 11.56 0 0 1 13.9-9.74zm7.77 13.56a9.56 9.56 0 0 0-8.15-11.59 9.86 9.86 0 0 0-8.12 1.9 10 10 0 0 0-3.34 5.6l-.13.66v.17c-.45 2.57.55 8.2 3.07 16.57l.43.08 7.7 1.34c5.23-7 8.1-11.94 8.55-14.5a.2.2 0 0 1 0-.07.75.75 0 0 1 0-.15zM741 246.4h8.9a5.34 5.34 0 0 1-5.37 2.3 5.53 5.53 0 0 1-1.53-.52 5.42 5.42 0 0 1-2-1.78zm-117.55-30.78a1.1 1.1 0 0 1 .51.95v10.94a1.1 1.1 0 0 1-.55.95l-9.45 5.44a1.07 1.07 0 0 1-1.09 0l-7-4.06a3.4 3.4 0 0 1-4.13.23l-6.65 3.83a1.07 1.07 0 0 1-1.09 0l-9.45-5.44a1.1 1.1 0 0 1-.55-.95v-10.9a1.1 1.1 0 0 1 .55-1l6.9-4a3.4 3.4 0 0 1 2-3.1v-8a1.12 1.12 0 0 1 .54-.95l9.45-5.44a1.08 1.08 0 0 1 1.1 0l9.45 5.44a1.12 1.12 0 0 1 .54.95v8a3.4 3.4 0 0 1 2 3.1l6.9 4zm-8.26-4v.01a2 2 0 0 0-2-2.01 2 2 0 1 0 0 4 2 2 0 0 0 2-2zm-19.55-10.46l-.04 7.16a3.4 3.4 0 0 1 2.6 3.3v.35l3.2 1.85a3.38 3.38 0 0 1 4.73.24l3.63-2.1v-.35a3.4 3.4 0 0 1 2.6-3.3v-7.16l-8.36-4.82-8.36 4.82zm10 15.2l.05.01a2 2 0 0 0-2.05-2.01 2 2 0 1 0 0 4 2 2 0 0 0 2-2zm-10.84-6.78l.05.01a2 2 0 0 0-2.05 1.99 2 2 0 1 0 4 0 2 2 0 0 0-2-2zm5.58 18.67l.05.01a3.59 3.59 0 0 1-.2-1.04 3.39 3.39 0 0 1 2.63-3.3v-4.24a3.41 3.41 0 0 1-2.63-3.31V216l-3.2-1.84a3.38 3.38 0 0 1-4.91-.43l-6 3.47v9.62l8.36 4.82 5.9-3.4zm3.23 1h.05a2 2 0 0 0 1.95-2 2 2 0 1 0-4 0 2 2 0 0 0 2 2zm18.16-2.42l-.01-9.63-6-3.47a3.38 3.38 0 0 1-4.91.43l-3.85 2.22a3.38 3.38 0 0 1-2 3.06v4.7a3.39 3.39 0 0 1 2 3.07 3.26 3.26 0 0 1-.07.7l6.48 3.73 8.36-4.82zm329.8 86.64c-5.36-1.63-8.87-4.38-8.82-7.5 0-2.74 2.7-5.2 7-6.86-1.68-4.58-1.62-8.46.56-10.3 2.4-2.02 6.85-1.05 11.6 2.1 3.58-3.77 7.3-5.55 10-4.3 2.92 1.38 3.92 6.08 2.92 12 5.12 1.65 8.45 4.36 8.45 7.36 0 2.42-2.1 4.6-5.56 6.24.8 3.43.42 6.23-1.34 7.7-2.3 1.92-6.4 1.14-10.88-1.62-3.8 4.32-7.86 6.44-10.74 5.1-2.6-1.2-3.65-5-3.2-9.92zm3.86 8.48v.05c2.1.93 5.45-.88 8.76-4.58a35.81 35.81 0 0 1-3.09-2.42 40.21 40.21 0 0 1-8-1.11c-.35 4.13.46 7.2 2.33 8.06zm17.15-20.42a27.87 27.87 0 0 0 .44-1.81 28.54 28.54 0 0 0-2.19-.51c.62.77 1.2 1.54 1.75 2.32zm.5 3.63c-.44 1.2-.94 2.44-1.52 3.67a42.06 42.06 0 0 1-2.22 4.17 30.68 30.68 0 0 0 6.53-1.69 29.64 29.64 0 0 0-2.79-6.15zm-1.06-1.7H972a42 42 0 0 0-2.91-3.91l-.6-.72a43.53 43.53 0 0 0-5.48-.35 42.22 42.22 0 0 0-4.86.28c-.6.98-1.1 2-1.6 3.08-.58 1.3-1.13 2.6-1.58 3.87a46.44 46.44 0 0 0 2.63 3.49 44.29 44.29 0 0 0 4.12 4.27H963a43.37 43.37 0 0 0 4.34-.21 42.91 42.91 0 0 0 2.81-5.09 44.69 44.69 0 0 0 1.87-4.71zm-16.9-2.3c.35-.74.7-1.45 1.08-2.1a32 32 0 0 0-4.4 1 32.38 32.38 0 0 0 2.1 4 56.41 56.41 0 0 1 1.22-2.89zm-.77 6.4a35 35 0 0 0-1.07 4.75 38.29 38.29 0 0 0 6 1c-.98-.97-1.95-2-2.88-3.13a47.89 47.89 0 0 1-2.05-2.62zm10.85 8.65c.33-.4.66-.85 1-1.3-.85.1-1.72.1-2.6.1a31.58 31.58 0 0 0 1.61 1.19zm10.16 2.48c1.22-1.03 1.5-3.16.87-5.87a33.9 33.9 0 0 1-8 1.9c-.55.83-1.13 1.6-1.7 2.35 3.84 2.32 7.18 3 8.84 1.62zm-.83-18.54a40.04 40.04 0 0 1-.81 3.07 31.83 31.83 0 0 1 3.58 7.45c2.75-1.33 4.4-3 4.4-4.7 0-2.2-2.8-4.37-7.17-5.8zm-3.3-12.1c-1.94-.9-4.97.6-8 3.77a40.29 40.29 0 0 1 6 5.53 39 39 0 0 1 4.07.82c.84-5.12.1-9.12-2.08-10.12zm-9.1 4.93v.02a36.6 36.6 0 0 0-3.01 4.08 44.06 44.06 0 0 1 7.72 0 37.48 37.48 0 0 0-4.71-4.1zM951.32 290c-1.6 1.38-1.57 4.62-.14 8.55a35.21 35.21 0 0 1 6-1.3 37 37 0 0 1 3.67-5.2c-4.1-2.67-7.77-3.53-9.53-2.05zm-1 10.52v.04c-3.7 1.44-6.03 3.44-6.03 5.4 0 2.27 2.93 4.5 7.5 5.92a35.58 35.58 0 0 1 1.46-6 35.78 35.78 0 0 1-2.92-5.37zm13 1.53a3.46 3.46 0 0 1 3.44 3.49 3.49 3.49 0 0 1-5.976 2.45 3.49 3.49 0 0 1 2.536-5.94zm56.97 72.67a3.34 3.34 0 0 1 .02-4.72l15-15 4.7 4.72-15 15a3.34 3.34 0 0 1-4.72 0zM804.1 311c-.276.276-.724.276-1 0s-.276-.724 0-1l6.88-6.88c.18-.18.44-.248.683-.183s.435.256.5.5-.004.504-.183.683L804.1 311zm10.28-.55a.69.69 0 0 1 1.01-.01.68.68 0 0 1 0 1l-3.94 3.94a.68.68 0 0 1-1 0 .69.69 0 0 1 0-1l3.93-3.93zm2.4 15.16a.68.68 0 0 1-.01-.99l7.87-7.87a.68.68 0 0 1 1 0 .69.69 0 0 1 0 1l-7.86 7.86a.69.69 0 0 1-1 0zm-16.53-29.3a.68.68 0 0 1 .99.01.69.69 0 0 1 0 1l-3.93 3.93a.69.69 0 0 1-1 0 .68.68 0 0 1 0-1l3.94-3.94zm17.52 25.4a.68.68 0 0 1-.99-.01.69.69 0 0 1 0-1l3.93-3.93a.69.69 0 0 1 1 0 .68.68 0 0 1 0 1l-3.94 3.94zM800 303.82a10.37 10.37 0 0 1-12.48-1.6l1.48-1.47c3.264 3.245 8.54 3.23 11.785-.035s3.23-8.54-.035-11.785l1.47-1.48a10.37 10.37 0 0 1 1.6 12.55 10.32 10.32 0 0 1 14.11 14.18 10.37 10.37 0 0 1 12.55 1.6l-1.48 1.47c-3.264-3.245-8.54-3.23-11.785.035s-3.23 8.54.035 11.785l-1.47 1.48a10.37 10.37 0 0 1-1.6-12.55A10.32 10.32 0 0 1 800 303.82zm3.1-.67h.04a8.3 8.3 0 0 0-.04 11.74 8.27 8.27 0 0 0 11.681-11.71 8.27 8.27 0 0 0-11.681-.03zm3.9 10.75l6.88-6.88c.276-.276.724-.276 1 0s.276.724 0 1L808 314.9c-.276.276-.724.276-1 0s-.276-.724 0-1zm-2.9.01a.68.68 0 0 1 0-1l8.85-8.85c.276-.276.724-.276 1 0s.276.724 0 1l-8.85 8.85a.68.68 0 0 1-1 0zm-.47-6.36a.69.69 0 0 1-1.01.01.68.68 0 0 1 0-1l3.94-3.94a.68.68 0 0 1 1 0 .69.69 0 0 1 0 1l-3.93 3.93zm-2.4-15.16a.68.68 0 0 1 .01.99l-7.87 7.87a.68.68 0 0 1-1 0 .69.69 0 0 1 0-1l7.86-7.86a.69.69 0 0 1 1 0zm77.03 81.13a6.65 6.65 0 0 1-7.72-5.38 6.53 6.53 0 0 1 .63-4.14l9.14-17.7-1.72-9.76-2 .35-.46-2.6 16.4-2.9.46 2.6-1.36.23 1.72 9.77 14.57 13.55a6.57 6.57 0 0 1 .3 9.34 6.69 6.69 0 0 1-3.71 2l-26.26 4.63zm-5.3-8.6l-.1.01a4.62 4.62 0 0 0 5 6.65l26.26-4.63a4.72 4.72 0 0 0 2.6-1.4 4.6 4.6 0 0 0-.21-6.54l-15-14-1.84-10.42-9.2 1.62 1.83 10.42-9.36 18.3zm5.3 5.24a3.33 3.33 0 0 1-3.57-4.75l5.07-10.28a9 9 0 0 1 4.43-1.68c3.26-.57 4.64 1.58 7.64 1.06a9.72 9.72 0 0 0 5-2.39l8.28 7.92a3.33 3.33 0 0 1-1.73 5.69l-25.12 4.43zm20.5-9c-.357.06-.655.307-.78.647s-.06.72.17 1 .594.414.95.353.655-.307.78-.647.06-.72-.17-1-.594-.414-.95-.353zm-4.53-4.57h0a1.33 1.33 0 0 0-1.09 1.51 1.32 1.32 0 0 0 2.603-.443 1.32 1.32 0 0 0-1.513-1.087zm-5.22 4.94v.02a2 2 0 0 0-1.62 2.29 2 2 0 0 0 3.605.814 2 2 0 0 0-1.975-3.124zm-5.84-4.33a1.65 1.65 0 0 0-1 2.695 1.65 1.65 0 0 0 1.57.555 1.65 1.65 0 0 0 1-2.695 1.65 1.65 0 0 0-1.57-.555zm-3.45 7.32v.02a1 1 0 0 0-.82 1.18 1 1 0 0 0 1.16.8c.357-.06.655-.307.78-.647s.06-.72-.17-1-.594-.414-.95-.353zM957 137l20-12 20 12h-40zm38.67 24v2H997v2h-40v-2h1.33v-2h2v-2h1.34v-18H959v-2h36v2h-2.67v18h1.34v2h2zm-25.34-2v-18h-4.66v18h4.66zm9.34 0v-18h-5.34v18h5.34zm8.66 0v-18h-4.66v18h4.66zm-157.95-31a4.61 4.61 0 0 1-3.66-1.82l-5.93 3.43a6 6 0 0 1 .36 2.08 6.16 6.16 0 0 1-.29 1.88l6 3.46a4.62 4.62 0 0 1 7.872 4.558 4.62 4.62 0 0 1-8.962-1.558 4.71 4.71 0 0 1 .2-1.36l-5.93-3.43a6.12 6.12 0 0 1-4.12 2.56v5.05a4.62 4.62 0 0 1-.92 9.147 4.62 4.62 0 0 1-.92-9.147v-5.05a6.14 6.14 0 0 1-4.23-2.73l-5.9 3.4a4.39 4.39 0 0 1 .27 1.55 4.64 4.64 0 0 1-8.965 1.676 4.64 4.64 0 0 1 7.745-4.816l6.07-3.5a6.28 6.28 0 0 1 .06-3.57l-6-3.46a4.58 4.58 0 0 1-3.53 1.65 4.61 4.61 0 0 1-2.755-8.309 4.61 4.61 0 0 1 7.165 5.029l5.94 3.43a6.16 6.16 0 0 1 4.11-2.55v-4.43a4.62 4.62 0 0 1 .92-9.147 4.62 4.62 0 0 1 .92 9.147v4.43a6.18 6.18 0 0 1 4 2.39l6-3.47a4.83 4.83 0 0 1-.14-1.15 4.63 4.63 0 0 1 7.911-3.267A4.63 4.63 0 0 1 830.38 128zm0-7.4h0a2.77 2.77 0 0 0-2.76 2.78 2.78 2.78 0 0 0 4.749 1.972 2.78 2.78 0 0 0-1.989-4.742zm-30.76 5.55v-.01a2.77 2.77 0 0 0 2.76-2.77 2.78 2.78 0 0 0-4.753-1.959 2.78 2.78 0 0 0 1.993 4.739zm0 16.66h0a2.78 2.78 0 0 0 1.039-5.34 2.78 2.78 0 0 0-3.622 3.648 2.78 2.78 0 0 0 2.583 1.702zm18.15 4.57v-.01a2.77 2.77 0 1 0-5.54.01 2.77 2.77 0 1 0 5.54 0zm-2.77-28v.02a2.77 2.77 0 0 0 2.77-2.79 2.78 2.78 0 0 0-4.746-1.976A2.78 2.78 0 0 0 815 119.38zm15.38 17.84v.02a2.78 2.78 0 0 0-2.76 2.76 2.78 2.78 0 0 0 4.753 1.959 2.78 2.78 0 0 0-1.993-4.739zM750.7 244.37v.03h-10.5a5.4 5.4 0 0 1 0-1.88v-.06h10.83l-.34 1.9zm.77-35.07c7.25 1.28 10.9 7.38 9.7 13.9a1.55 1.55 0 0 0 0 .21c-.553 3.12-3.77 8.57-9.65 16.35l-.13.7h-10.83l.45-2.54c-2.807-9.153-3.977-15.317-3.5-18.5l.07-.4a11.56 11.56 0 0 1 13.9-9.74zm7.77 13.56a9.56 9.56 0 0 0-8.11-11.59 9.86 9.86 0 0 0-8.12 1.9 10 10 0 0 0-3.34 5.6l-.13.66v.17c-.45 2.57.55 8.2 3.07 16.57l.43.08 7.65 1.34c5.23-7 8.1-11.94 8.55-14.5a.2.2 0 0 1 0-.07.75.75 0 0 1 0-.15zm278.33-3.86a12 12 0 0 1 5.4-8.31v2.44a10 10 0 0 0-3.34 5.6l-.13.66v.17c-.45 2.57.55 8.2 3.07 16.57l.43.08v4.2h-2.44l.45-2.54c-2.807-9.153-3.977-15.317-3.5-18.5l.07-.4zm-114.12-3.38a1.1 1.1 0 0 1 .51.95v10.94a1.1 1.1 0 0 1-.55.95l-9.45 5.44a1.07 1.07 0 0 1-1.09 0l-7-4.06a3.4 3.4 0 0 1-4.13.23l-6.65 3.83a1.07 1.07 0 0 1-1.09 0l-9.45-5.44a1.1 1.1 0 0 1-.55-.95v-10.9a1.1 1.1 0 0 1 .55-1l6.9-4a3.4 3.4 0 0 1 2-3.1v-8a1.12 1.12 0 0 1 .54-.95l9.45-5.44a1.08 1.08 0 0 1 1.1 0l9.45 5.44a1.12 1.12 0 0 1 .54.95v8a3.4 3.4 0 0 1 2 3.1l6.9 4zm-8.26-4v.01a2 2 0 0 0-2-2.01 2 2 0 1 0 0 4 2 2 0 0 0 2-2zm-19.55-10.46l-.04 7.16a3.4 3.4 0 0 1 2.6 3.3v.35l3.2 1.85a3.38 3.38 0 0 1 4.73.24l3.63-2.1v-.35a3.4 3.4 0 0 1 2.6-3.3v-7.16l-8.36-4.82-8.36 4.82zm10 15.2l.05.01a2 2 0 0 0-2.05-2.01 2 2 0 1 0 0 4 2 2 0 0 0 2-2zm-10.84-6.78l.05.01a2 2 0 0 0-2.05 1.99 2 2 0 1 0 4 0 2 2 0 0 0-2-2zm5.58 18.67l.05.01a3.59 3.59 0 0 1-.2-1.04 3.39 3.39 0 0 1 2.63-3.3v-4.24a3.41 3.41 0 0 1-2.63-3.31V216l-3.2-1.84a3.38 3.38 0 0 1-4.91-.43l-6 3.47v9.62l8.36 4.82 5.9-3.4zm3.23 1h.05a2 2 0 0 0 1.95-2 2 2 0 1 0-4 0 2 2 0 0 0 2 2zm18.16-2.42l-.01-9.63-6-3.47a3.38 3.38 0 0 1-4.91.43l-3.85 2.22a3.38 3.38 0 0 1-2 3.06v4.7a3.39 3.39 0 0 1 2 3.07 3.26 3.26 0 0 1-.07.7l6.48 3.73 8.36-4.82zM995.67 461v2H997v2h-40v-2h1.33v-2h2v-2h1.34v-18H959v-2h36v2h-2.67v18h1.34v2h2zm-25.34-2v-18h-4.66v18h4.66zm9.34 0v-18h-5.34v18h5.34zm8.66 0v-18h-4.66v18h4.66zM957 437l20-12 20 12h-40zm-126.62-16.4h0a2.77 2.77 0 0 0-2.76 2.78 2.78 2.78 0 0 0 4.749 1.972 2.78 2.78 0 0 0-1.989-4.742zm-30.76 5.55v-.01a2.77 2.77 0 0 0 2.76-2.77 2.78 2.78 0 0 0-4.753-1.959 2.78 2.78 0 0 0 1.993 4.739zm0 16.66h0a2.78 2.78 0 0 0 1.039-5.34 2.78 2.78 0 0 0-3.622 3.648 2.78 2.78 0 0 0 2.583 1.702zm18.15 4.57v-.01a2.77 2.77 0 1 0-5.54.01 2.77 2.77 0 1 0 5.54 0zm-2.77-28v.02a2.77 2.77 0 0 0 2.77-2.79 2.78 2.78 0 0 0-4.746-1.976A2.78 2.78 0 0 0 815 419.38zm299.38-408.93a.69.69 0 0 1 1.01-.01.68.68 0 0 1 0 1l-3.94 3.94a.68.68 0 0 1-1 0 .69.69 0 0 1 0-1l3.93-3.93zm-10.76-2.9a.69.69 0 0 1-1.01.01.68.68 0 0 1 0-1l3.94-3.94a.68.68 0 0 1 1 0 .69.69 0 0 1 0 1l-3.93 3.93zm.48 3.45c-.276.276-.724.276-1 0s-.276-.724 0-1l6.88-6.88c.276-.276.724-.276 1 0s.276.724 0 1L1104.1 11zm-.01 2.9a.68.68 0 0 1 0-1l8.85-8.85c.276-.276.724-.276 1 0s.276.724 0 1l-8.85 8.85a.68.68 0 0 1-1 0zm-.98-10.76h.04a8.3 8.3 0 0 0-.04 11.74 8.27 8.27 0 0 0 11.681-11.71 8.27 8.27 0 0 0-11.681-.03zm3.9 10.75l6.88-6.88c.276-.276.724-.276 1 0s.276.724 0 1L1108 14.9c-.276.276-.724.276-1 0s-.276-.724 0-1zm9.77 11.7a.68.68 0 0 1-.01-.99l7.87-7.87a.68.68 0 0 1 1 0 .69.69 0 0 1 0 1l-7.86 7.86a.69.69 0 0 1-1 0zm1-3.9a.68.68 0 0 1-.99-.01.69.69 0 0 1 0-1l3.93-3.93a.69.69 0 0 1 1 0 .68.68 0 0 1 0 1l-3.94 3.94zm60.5 48.46a3.33 3.33 0 0 1-3.57-4.75l5.07-10.28a9 9 0 0 1 4.43-1.68c3.26-.57 4.64 1.58 7.64 1.06a9.72 9.72 0 0 0 5-2.39l8.28 7.92a3.33 3.33 0 0 1-1.73 5.69l-25.12 4.43zm20.5-9c-.357.06-.655.307-.78.647s-.06.72.17 1 .594.414.95.353c.552-.094.924-.618.83-1.17s-.618-.924-1.17-.83zm-4.53-4.57h0a1.33 1.33 0 0 0-1.09 1.51 1.32 1.32 0 0 0 2.603-.443 1.32 1.32 0 0 0-1.513-1.087zm-5.22 4.94v.02a2 2 0 0 0-1.62 2.29 2 2 0 0 0 3.605.814 2 2 0 0 0-1.975-3.124zm-5.84-4.33a1.65 1.65 0 0 0-1 2.695 1.65 1.65 0 0 0 1.57.555 1.65 1.65 0 0 0 1-2.695 1.65 1.65 0 0 0-1.57-.555zm-3.45 7.32v.02a1 1 0 0 0-.82 1.18 1 1 0 0 0 1.16.8c.552-.094.924-.618.83-1.17s-.618-.924-1.17-.83zm-1.46 9a6.65 6.65 0 0 1-7.72-5.38 6.53 6.53 0 0 1 .63-4.14l9.14-17.7-1.72-9.76-2 .35-.46-2.6 16.4-2.9.46 2.6-1.36.23 1.72 9.77 14.57 13.55a6.57 6.57 0 0 1 .3 9.34 6.69 6.69 0 0 1-3.71 2l-26.26 4.63zm-5.3-8.6l-.1.01a4.62 4.62 0 0 0 5 6.65l26.26-4.63a4.72 4.72 0 0 0 2.6-1.4 4.6 4.6 0 0 0-.21-6.54l-15-14-1.84-10.42-9.2 1.62 1.83 10.42-9.36 18.3zM1104.1 311c-.276.276-.724.276-1 0s-.276-.724 0-1l6.88-6.88c.18-.18.44-.248.683-.183s.435.256.5.5-.004.504-.183.683l-6.88 6.88zm12.67 14.6a.68.68 0 0 1-.01-.99l7.87-7.87a.68.68 0 0 1 1 0 .69.69 0 0 1 0 1l-7.86 7.86a.69.69 0 0 1-1 0zm-16.77-21.8a10.37 10.37 0 0 1-12.48-1.6l1.48-1.47c2.11 2.1 5.182 2.912 8.056 2.133s5.113-3.032 5.875-5.9-.07-5.944-2.18-8.043l1.47-1.48a10.37 10.37 0 0 1 1.6 12.55 10.32 10.32 0 0 1 14.11 14.18 10.37 10.37 0 0 1 12.55 1.6l-1.48 1.47c-2.11-2.1-5.182-2.912-8.056-2.133s-5.113 3.032-5.875 5.9.07 5.944 2.18 8.043l-1.47 1.48a10.37 10.37 0 0 1-1.6-12.55 10.32 10.32 0 0 1-14.18-14.18zm3.1-.67h.04a8.3 8.3 0 0 0-.04 11.74 8.27 8.27 0 0 0 11.681-11.71 8.27 8.27 0 0 0-11.681-.03zm.5 4.4a.69.69 0 0 1-1.01.01.68.68 0 0 1 0-1l3.94-3.94a.68.68 0 0 1 1 0 .69.69 0 0 1 0 1l-3.93 3.93zm3.38 6.35l6.88-6.88c.276-.276.724-.276 1 0s.276.724 0 1l-6.88 6.88c-.18.18-.44.248-.683.183s-.435-.256-.5-.5.004-.504.183-.683zm7.38-3.45a.69.69 0 0 1 1.01-.01.68.68 0 0 1 0 1l-3.94 3.94a.68.68 0 0 1-1 0 .69.69 0 0 1 0-1l3.93-3.93zm-14.14-14.15a.68.68 0 0 1 .99.01.69.69 0 0 1 0 1l-3.93 3.93a.69.69 0 0 1-1 0 .68.68 0 0 1 0-1l3.94-3.94zm3.85 17.6a.68.68 0 0 1 0-1l8.85-8.85c.276-.276.724-.276 1 0s.276.724 0 1l-8.85 8.85a.68.68 0 0 1-1 0zm-2.86-21.52a.68.68 0 0 1 .01.99l-7.87 7.87a.68.68 0 0 1-1 0 .69.69 0 0 1 0-1l7.86-7.86a.69.69 0 0 1 1 0zm16.53 29.3a.68.68 0 0 1-.99-.01.69.69 0 0 1 0-1l3.93-3.93a.69.69 0 0 1 1 0 .68.68 0 0 1 0 1l-3.94 3.94zm60.5 51.82a6.65 6.65 0 0 1-7.72-5.38 6.53 6.53 0 0 1 .63-4.14l9.14-17.7-1.72-9.76-2 .35-.46-2.6 16.4-2.9.46 2.6-1.36.23 1.72 9.77 14.57 13.55a6.57 6.57 0 0 1 .3 9.34 6.69 6.69 0 0 1-3.71 2l-26.26 4.63zm-5.3-8.6l-.1.01a4.62 4.62 0 0 0 5 6.65l26.26-4.63a4.72 4.72 0 0 0 2.6-1.4 4.6 4.6 0 0 0-.21-6.54l-15-14-1.84-10.42-9.2 1.62 1.83 10.42-9.36 18.3zm5.3 5.24a3.33 3.33 0 0 1-3.57-4.75l5.07-10.28a9 9 0 0 1 4.43-1.68c3.26-.57 4.64 1.58 7.64 1.06a9.72 9.72 0 0 0 5-2.39l8.28 7.92a3.33 3.33 0 0 1-1.73 5.69l-25.12 4.43zm20.5-9c-.357.06-.655.307-.78.647s-.06.72.17 1 .594.414.95.353c.552-.094.924-.618.83-1.17s-.618-.924-1.17-.83zm-4.53-4.57h0a1.33 1.33 0 0 0-1.09 1.51 1.32 1.32 0 0 0 2.603-.443 1.32 1.32 0 0 0-1.513-1.087zm-5.22 4.94v.02a2 2 0 0 0-1.62 2.29 2 2 0 0 0 3.605.814 2 2 0 0 0-1.975-3.124zm-5.84-4.33a1.65 1.65 0 0 0-1 2.695 1.65 1.65 0 0 0 1.57.555 1.65 1.65 0 0 0 1-2.695 1.65 1.65 0 0 0-1.57-.555zm-3.45 7.32v.02a1 1 0 0 0-.82 1.18 1 1 0 0 0 1.16.8c.552-.094.924-.618.83-1.17s-.618-.924-1.17-.83zM1130.38 128a4.61 4.61 0 0 1-3.66-1.82l-5.93 3.43a6 6 0 0 1 .36 2.08 6.16 6.16 0 0 1-.29 1.88l6 3.46a4.62 4.62 0 0 1 7.872 4.558 4.62 4.62 0 0 1-8.962-1.558 4.71 4.71 0 0 1 .2-1.36l-5.93-3.43a6.12 6.12 0 0 1-4.12 2.56v5.05a4.62 4.62 0 0 1-.92 9.147 4.62 4.62 0 0 1-.92-9.147v-5.05a6.14 6.14 0 0 1-4.23-2.73l-5.9 3.4a4.39 4.39 0 0 1 .27 1.55 4.64 4.64 0 0 1-8.965 1.676 4.64 4.64 0 0 1 7.745-4.816l6.07-3.5a6.28 6.28 0 0 1 .06-3.57l-6-3.46a4.58 4.58 0 0 1-3.53 1.65 4.61 4.61 0 0 1-2.755-8.309 4.61 4.61 0 0 1 7.165 5.029l5.94 3.43a6.16 6.16 0 0 1 4.11-2.55v-4.43a4.62 4.62 0 0 1 .92-9.147 4.62 4.62 0 0 1 .92 9.147v4.43a6.18 6.18 0 0 1 4 2.39l6-3.47a4.83 4.83 0 0 1-.14-1.15 4.63 4.63 0 0 1 7.911-3.267 4.63 4.63 0 0 1-3.301 7.897zm0-7.4h0a2.77 2.77 0 0 0-2.76 2.78 2.78 2.78 0 0 0 4.749 1.972 2.78 2.78 0 0 0-1.989-4.742zm-30.76 5.55v-.01a2.77 2.77 0 0 0 2.76-2.77 2.78 2.78 0 0 0-4.753-1.959 2.78 2.78 0 0 0 1.993 4.739zm0 16.66h0a2.78 2.78 0 0 0 1.039-5.34 2.78 2.78 0 0 0-3.622 3.648 2.78 2.78 0 0 0 2.583 1.702zm18.15 4.57v-.01a2.77 2.77 0 1 0-5.54.01 2.77 2.77 0 1 0 5.54 0zm-2.77-28v.02a2.77 2.77 0 0 0 2.77-2.79 2.78 2.78 0 0 0-4.746-1.976 2.78 2.78 0 0 0 1.976 4.746zm15.38 17.84v.02a2.78 2.78 0 0 0-2.76 2.76 2.78 2.78 0 0 0 4.753 1.959 2.78 2.78 0 0 0-1.993-4.739zm-78.9 72.08c7.25 1.28 10.9 7.38 9.74 13.9a1.55 1.55 0 0 0 0 .21c-.553 3.12-3.77 8.57-9.65 16.35l-.13.7h-8.4v-4.2l7.65 1.34c5.23-7 8.1-11.94 8.55-14.5a.2.2 0 0 1 0-.07.75.75 0 0 1 0-.15 9.56 9.56 0 0 0-8.12-11.59 9.86 9.86 0 0 0-8.12 1.9v-2.44a12 12 0 0 1 8.47-1.43zm144.17-8.14l-.04 7.16a3.4 3.4 0 0 1 2.6 3.3v.35l3.2 1.85a3.38 3.38 0 0 1 4.73.24l3.63-2.1v-.35a3.4 3.4 0 0 1 2.6-3.3v-7.16l-8.36-4.82-8.36 4.82zm10 15.2l.05.01a2 2 0 0 0-2.05-2.01 2 2 0 1 0 0 4 2 2 0 0 0 2-2zm-10.84-6.78l.05.01a2 2 0 0 0-2.05 1.99 2 2 0 1 0 4 0 2 2 0 0 0-2-2zm5.58 18.67l.05.01a3.59 3.59 0 0 1-.2-1.04 3.39 3.39 0 0 1 2.63-3.3v-4.24a3.41 3.41 0 0 1-2.63-3.31V216l-3.2-1.84a3.38 3.38 0 0 1-4.91-.43l-6 3.47v9.62l8.36 4.82 5.9-3.4zm3.23 1h.05a2 2 0 0 0 1.95-2 2 2 0 1 0-4 0 2 2 0 0 0 2 2z" fill="#e07203"/><use filter="url(#B)" xlink:href="#A" fill="#000"/></g></svg>