<?xml version="1.0" encoding="UTF-8"?>
<svg width="242px" height="35px" viewBox="0 0 242 35" version="1.1" xmlns="http://www.w3.org/2000/svg" xmlns:xlink="http://www.w3.org/1999/xlink">
    <!-- Generator: Sketch 53.2 (72643) - https://sketchapp.com -->
    <title>Combined Shape</title>
    <desc>Created with Sketch.</desc>
    <g id="Page-1" stroke="none" stroke-width="1" fill="none" fill-rule="evenodd">
        <path d="M0.855414771,33.1450839 L0.855414771,0.276978417 L14.8578966,0.276978417 L14.8578966,4.70863309 L5.5536159,4.70863309 L5.5536159,14.6798561 L13.6603159,14.6798561 L13.6603159,19.1115108 L5.5536159,19.1115108 L5.5536159,33.1450839 L0.855414771,33.1450839 Z M17.5368737,8.0323741 C17.5368737,6.70902616 17.7671754,5.53957342 18.2277856,4.52398082 C18.6883959,3.50838821 19.3025337,2.66207373 20.0702174,1.98501199 C20.8071938,1.33872579 21.6439566,0.846324634 22.5805308,0.507793765 C23.517105,0.169262896 24.4613418,1.98951966e-13 25.4132697,1.98951966e-13 C26.3651976,1.98951966e-13 27.3094344,0.169262896 28.2460086,0.507793765 C29.1825828,0.846324634 30.034699,1.33872579 30.8023827,1.98501199 C31.5393592,2.66207373 32.1381435,3.50838821 32.5987538,4.52398082 C33.059364,5.53957342 33.2896657,6.70902616 33.2896657,8.0323741 L33.2896657,25.3896882 C33.2896657,26.7745873 33.059364,27.9594275 32.5987538,28.9442446 C32.1381435,29.9290617 31.5393592,30.7446011 30.8023827,31.3908873 C30.034699,32.067949 29.1825828,32.5757377 28.2460086,32.9142686 C27.3094344,33.2527995 26.3651976,33.4220624 25.4132697,33.4220624 C24.4613418,33.4220624 23.517105,33.2527995 22.5805308,32.9142686 C21.6439566,32.5757377 20.8071938,32.067949 20.0702174,31.3908873 C19.3025337,30.7446011 18.6883959,29.9290617 18.2277856,28.9442446 C17.7671754,27.9594275 17.5368737,26.7745873 17.5368737,25.3896882 L17.5368737,8.0323741 Z M22.2350748,25.3896882 C22.2350748,26.528383 22.5498204,27.3670037 23.1793211,27.9055755 C23.8088218,28.4441474 24.5534639,28.7134293 25.4132697,28.7134293 C26.2730755,28.7134293 27.0177176,28.4441474 27.6472183,27.9055755 C28.2767189,27.3670037 28.5914646,26.528383 28.5914646,25.3896882 L28.5914646,8.0323741 C28.5914646,6.89367936 28.2767189,6.05505865 27.6472183,5.51648681 C27.0177176,4.97791497 26.2730755,4.70863309 25.4132697,4.70863309 C24.5534639,4.70863309 23.8088218,4.97791497 23.1793211,5.51648681 C22.5498204,6.05505865 22.2350748,6.89367936 22.2350748,8.0323741 L22.2350748,25.3896882 Z M37.3504667,33.1450839 L37.3504667,0.276978417 L42.0486678,0.276978417 L42.0486678,28.4364508 L51.3529485,28.4364508 L51.3529485,33.1450839 L37.3504667,33.1450839 Z M54.3082904,33.1450839 L54.3082904,0.276978417 L61.2634705,0.276978417 C63.9657173,0.276978417 66.0154022,1.01558014 67.4125866,2.49280576 C68.8097711,3.97003137 69.5083528,6.06273626 69.5083528,8.77098321 L69.5083528,24.1432854 C69.5083528,27.2208387 68.7637107,29.4905003 67.2744042,30.9523381 C65.7850978,32.414176 63.6432922,33.1450839 60.8489233,33.1450839 L54.3082904,33.1450839 Z M59.0064915,4.70863309 L59.0064915,28.7134293 L61.1713489,28.7134293 C62.4917649,28.7134293 63.4283251,28.3825972 63.9810574,27.7209233 C64.5337897,27.0592493 64.8101517,26.0205906 64.8101517,24.6049161 L64.8101517,8.77098321 C64.8101517,7.4784108 64.5491431,6.47822097 64.0271182,5.77038369 C63.5050932,5.06254642 62.5531796,4.70863309 61.1713489,4.70863309 L59.0064915,4.70863309 Z M73.983701,33.1450839 L73.983701,0.276978417 L78.6819021,0.276978417 L78.6819021,33.1450839 L73.983701,33.1450839 Z M82.973007,33.1450839 L82.973007,0.276978417 L87.486965,0.276978417 L94.5803275,20.0809353 L94.6724491,20.0809353 L94.6724491,0.276978417 L99.3706502,0.276978417 L99.3706502,33.1450839 L94.9488138,33.1450839 L87.7633298,13.3872902 L87.6712082,13.3872902 L87.6712082,33.1450839 L82.973007,33.1450839 Z M103.247208,8.0323741 C103.247208,6.70902616 103.47751,5.53957342 103.93812,4.52398082 C104.39873,3.50838821 105.012868,2.66207373 105.780552,1.98501199 C106.517528,1.33872579 107.354291,0.846324634 108.290865,0.507793765 C109.227439,0.169262896 110.171676,1.98951966e-13 111.123604,1.98951966e-13 C112.075532,1.98951966e-13 113.019769,0.169262896 113.956343,0.507793765 C114.892917,0.846324634 115.745033,1.33872579 116.512717,1.98501199 C117.249693,2.66207373 117.848478,3.50838821 118.309088,4.52398082 C118.769698,5.53957342 119,6.70902616 119,8.0323741 L119,9.6942446 L114.301799,9.6942446 L114.301799,8.0323741 C114.301799,6.89367936 113.987053,6.05505865 113.357553,5.51648681 C112.728052,4.97791497 111.98341,4.70863309 111.123604,4.70863309 C110.263798,4.70863309 109.519156,4.97791497 108.889655,5.51648681 C108.260155,6.05505865 107.945409,6.89367936 107.945409,8.0323741 L107.945409,25.3896882 C107.945409,26.528383 108.260155,27.3670037 108.889655,27.9055755 C109.519156,28.4441474 110.263798,28.7134293 111.123604,28.7134293 C111.98341,28.7134293 112.728052,28.4441474 113.357553,27.9055755 C113.987053,27.3670037 114.301799,26.528383 114.301799,25.3896882 L114.301799,19.2038369 L110.570874,19.2038369 L110.570874,15.0491607 L119,15.0491607 L119,25.3896882 C119,26.7745873 118.769698,27.9594275 118.309088,28.9442446 C117.848478,29.9290617 117.249693,30.7446011 116.512717,31.3908873 C115.745033,32.067949 114.892917,32.5757377 113.956343,32.9142686 C113.019769,33.2527995 112.075532,33.4220624 111.123604,33.4220624 C110.171676,33.4220624 109.227439,33.2527995 108.290865,32.9142686 C107.354291,32.5757377 106.517528,32.067949 105.780552,31.3908873 C105.012868,30.7446011 104.39873,29.9290617 103.93812,28.9442446 C103.47751,27.9594275 103.247208,26.7745873 103.247208,25.3896882 L103.247208,8.0323741 Z M161,34.0059952 L161,0.284172662 L165.820232,0.284172662 L165.820232,14.7296163 L171.774637,14.7296163 L171.774637,0.284172662 L176.594869,0.284172662 L176.594869,34.0059952 L171.774637,34.0059952 L171.774637,18.9922062 L165.820232,18.9922062 L165.820232,34.0059952 L161,34.0059952 Z M180.761146,8.24100719 C180.761146,6.88328658 180.997429,5.68345845 181.470003,4.64148681 C181.942577,3.59951517 182.572667,2.7312185 183.36029,2.03657074 C184.116409,1.37349788 184.974906,0.868307092 185.935807,0.520983213 C186.896708,0.173659335 187.86547,-6.39488462e-14 188.842123,-6.39488462e-14 C189.818777,-6.39488462e-14 190.787539,0.173659335 191.74844,0.520983213 C192.709341,0.868307092 193.58359,1.37349788 194.371213,2.03657074 C195.127332,2.7312185 195.741669,3.59951517 196.214243,4.64148681 C196.686818,5.68345845 196.923101,6.88328658 196.923101,8.24100719 L196.923101,26.0491607 C196.923101,27.4700311 196.686818,28.6856464 196.214243,29.6960432 C195.741669,30.7064399 195.127332,31.5431622 194.371213,32.206235 C193.58359,32.9008828 192.709341,33.4218608 191.74844,33.7691847 C190.787539,34.1165085 189.818777,34.2901679 188.842123,34.2901679 C187.86547,34.2901679 186.896708,34.1165085 185.935807,33.7691847 C184.974906,33.4218608 184.116409,32.9008828 183.36029,32.206235 C182.572667,31.5431622 181.942577,30.7064399 181.470003,29.6960432 C180.997429,28.6856464 180.761146,27.4700311 180.761146,26.0491607 L180.761146,8.24100719 Z M185.581378,26.0491607 C185.581378,27.2174319 185.904299,28.077835 186.55015,28.6303957 C187.196001,29.1829564 187.959985,29.4592326 188.842123,29.4592326 C189.724262,29.4592326 190.488245,29.1829564 191.134097,28.6303957 C191.779948,28.077835 192.102869,27.2174319 192.102869,26.0491607 L192.102869,8.24100719 C192.102869,7.07273597 191.779948,6.2123329 191.134097,5.65977218 C190.488245,5.10721147 189.724262,4.83093525 188.842123,4.83093525 C187.959985,4.83093525 187.196001,5.10721147 186.55015,5.65977218 C185.904299,6.2123329 185.581378,7.07273597 185.581378,8.24100719 L185.581378,26.0491607 Z M201.089377,34.0059952 L201.089377,0.284172662 L205.720581,0.284172662 L211.911272,18.1396882 L212.005786,18.1396882 L218.149219,0.284172662 L222.82768,0.284172662 L222.82768,34.0059952 L218.007448,34.0059952 L218.007448,13.4982014 L217.912933,13.4982014 L213.139958,27.9910072 L210.729842,27.9910072 L206.004124,13.4982014 L205.90961,13.4982014 L205.90961,34.0059952 L201.089377,34.0059952 Z M227.277499,34.0059952 L227.277499,0.284172662 L241.643682,0.284172662 L241.643682,4.83093525 L232.097732,4.83093525 L232.097732,14.7296163 L240.414995,14.7296163 L240.414995,19.2763789 L232.097732,19.2763789 L232.097732,29.17506 L241.643682,29.17506 L241.643682,34.0059952 L227.277499,34.0059952 Z M150.64545,8.05155875 L146.534075,21.0761391 C146.376551,21.5181877 146.258409,21.9286552 146.179647,22.307554 C146.100884,22.6864527 146.061504,22.9864098 146.061504,23.2074341 C146.061504,23.6179077 146.140265,23.9494392 146.29779,24.2020384 C146.455314,24.4546376 146.738855,24.5809353 147.148419,24.5809353 C147.904537,24.5809353 148.660645,24.265191 149.416763,23.633693 C150.172882,23.0021951 150.86598,22.18126 151.496079,21.1708633 C152.126178,20.1604666 152.63025,19.0632553 153.008309,17.8791966 C153.386368,16.695138 153.575395,15.5347779 153.575395,14.3980815 C153.575395,12.7561868 153.228846,11.2406145 152.535737,9.85131894 C151.842629,8.46202343 150.913247,7.2621953 149.747564,6.25179856 C148.581881,5.24140182 147.242941,4.46782842 145.730703,3.93105516 C144.218466,3.39428189 142.611738,3.12589928 140.910471,3.12589928 C138.92566,3.12589928 137.074772,3.51268598 135.357752,4.28627098 C133.640733,5.05985599 132.120642,6.1097056 130.797435,7.43585132 C129.474227,8.76199704 128.450332,10.2775694 127.725718,11.9826139 C127.001104,13.6876584 126.638803,15.4558262 126.638803,17.2871703 C126.638803,19.213239 127.00898,21.0208748 127.749347,22.7101319 C128.489713,24.3993889 129.521484,25.8597061 130.844692,27.0911271 C132.167899,28.354123 133.695866,29.3487174 135.428638,30.07494 C137.16141,30.8011627 139.067431,31.1642686 141.146757,31.1642686 C142.280935,31.1642686 143.415096,31.0300773 144.549274,30.7616906 C145.683452,30.493304 146.754604,30.1380917 147.762762,29.6960432 C148.77092,29.2539946 149.692426,28.725123 150.527307,28.1094125 C151.362188,27.493702 152.063163,26.8543199 152.630252,26.191247 L156.269054,26.191247 C155.512936,27.4542429 154.575678,28.5909222 153.457252,29.6013189 C152.338827,30.6117157 151.118029,31.4642251 149.794821,32.1588729 C148.440108,32.8535207 146.998779,33.3823923 145.470789,33.7455036 C143.942799,34.1086149 142.375452,34.2901679 140.7687,34.2901679 C138.311314,34.2901679 136.003611,33.8560195 133.845523,32.9877098 C131.687434,32.1194001 129.805042,30.9116784 128.19829,29.3645084 C126.591538,27.8489133 125.323483,26.0333839 124.394087,23.9178657 C123.464691,21.8023475 123,19.5132018 123,17.0503597 C123,14.6822424 123.472567,12.464139 124.417715,10.3959832 C125.362864,8.32782739 126.654547,6.52019159 128.292804,4.97302158 C129.899556,3.42585158 131.781948,2.21023624 133.940037,1.32613909 C136.098126,0.442041942 138.405828,-6.39488462e-14 140.863214,-6.39488462e-14 C143.06856,-6.39488462e-14 145.163607,0.347318669 147.148419,1.04196643 C149.13323,1.73661418 150.881728,2.71542134 152.393966,3.97841727 C153.906203,5.24141319 155.087621,6.73330475 155.938254,8.45413669 C156.788888,10.1749686 157.214198,12.0773277 157.214198,14.161271 C157.214198,16.1504896 156.844021,17.9581254 156.103654,19.5842326 C155.363288,21.2103399 154.441782,22.5917209 153.339109,23.7284173 C152.236436,24.8966885 151.062895,25.8044532 149.818449,26.4517386 C148.574004,27.099024 147.447719,27.4226619 146.439561,27.4226619 C145.368393,27.4226619 144.517772,27.1779601 143.887673,26.6885492 C143.257575,26.1991382 142.879521,25.4492457 142.753501,24.4388489 L142.658987,24.4388489 C142.312432,24.8177477 141.958007,25.1808536 141.5957,25.5281775 C141.233393,25.8755013 140.831711,26.1912456 140.390642,26.4754197 C139.918068,26.7595937 139.398244,26.9885083 138.831155,27.1621703 C138.264066,27.3358322 137.618225,27.4226619 136.893611,27.4226619 C135.885453,27.4226619 134.963947,27.2332153 134.129066,26.8543165 C133.294185,26.4754178 132.577458,25.9544398 131.978864,25.2913669 C130.750171,23.9020714 130.135834,22.2128397 130.135834,20.2236211 C130.135834,18.6764511 130.403622,17.1293043 130.939206,15.5821343 C131.47479,14.0349643 132.230898,12.6456896 133.207551,11.4142686 C134.152699,10.1828476 135.294736,9.18035958 136.633696,8.40677458 C137.972656,7.63318958 139.492747,7.24640288 141.194014,7.24640288 C142.296687,7.24640288 143.359963,7.5305727 144.383874,8.09892086 C145.407784,8.66726903 146.156016,9.61450176 146.62859,10.9406475 L146.723104,10.9406475 L147.668248,8.05155875 L150.64545,8.05155875 Z M144.691045,14.58753 C144.691045,13.4824085 144.391753,12.550963 143.793159,11.7931655 C143.194565,11.0353679 142.328192,10.6564748 141.194014,10.6564748 C140.154351,10.6564748 139.193465,10.9485382 138.311326,11.5326739 C137.429188,12.1168095 136.67308,12.8667021 136.042982,13.7823741 C135.381378,14.6980461 134.861554,15.7005341 134.483495,16.7898681 C134.105435,17.8792021 133.916409,18.9132645 133.916409,19.8920863 C133.916409,21.2182321 134.270834,22.2365072 134.979695,22.9469424 C135.688556,23.6573777 136.641567,24.0125899 137.838754,24.0125899 C138.720893,24.0125899 139.57939,23.6968457 140.414271,23.0653477 C141.249152,22.4338498 141.981631,21.6444891 142.61173,20.6972422 C143.241828,19.7815702 143.7459,18.7711886 144.123959,17.6660671 C144.502019,16.5609457 144.691045,15.5347769 144.691045,14.58753 Z" id="Combined-Shape" fill="#47494F"></path>
    </g>
</svg>