<?xml version="1.0" encoding="UTF-8"?>
<svg width="120px" height="70px" viewBox="0 0 120 70" version="1.1" xmlns="http://www.w3.org/2000/svg" xmlns:xlink="http://www.w3.org/1999/xlink">
    <!-- Generator: Sketch 53.2 (72643) - https://sketchapp.com -->
    <title>Combined Shape</title>
    <desc>Created with Sketch.</desc>
    <g id="Page-1" stroke="none" stroke-width="1" fill="none" fill-rule="evenodd">
        <path d="M1.49909682,33.1450839 L1.49909682,0.276978417 L15.5015786,0.276978417 L15.5015786,4.70863309 L6.19729795,4.70863309 L6.19729795,14.6798561 L14.3039979,14.6798561 L14.3039979,19.1115108 L6.19729795,19.1115108 L6.19729795,33.1450839 L1.49909682,33.1450839 Z M18.1805557,8.0323741 C18.1805557,6.70902616 18.4108574,5.53957342 18.8714677,4.52398082 C19.3320779,3.50838821 19.9462157,2.66207373 20.7138995,1.98501199 C21.4508759,1.33872579 22.2876386,0.846324634 23.2242128,0.507793765 C24.160787,0.169262896 25.1050239,-4.54747351e-13 26.0569517,-4.54747351e-13 C27.0088796,-4.54747351e-13 27.9531165,0.169262896 28.8896907,0.507793765 C29.8262648,0.846324634 30.678381,1.33872579 31.4460648,1.98501199 C32.1830412,2.66207373 32.7818256,3.50838821 33.2424358,4.52398082 C33.7030461,5.53957342 33.9333477,6.70902616 33.9333477,8.0323741 L33.9333477,25.3896882 C33.9333477,26.7745873 33.7030461,27.9594275 33.2424358,28.9442446 C32.7818256,29.9290617 32.1830412,30.7446011 31.4460648,31.3908873 C30.678381,32.067949 29.8262648,32.5757377 28.8896907,32.9142686 C27.9531165,33.2527995 27.0088796,33.4220624 26.0569517,33.4220624 C25.1050239,33.4220624 24.160787,33.2527995 23.2242128,32.9142686 C22.2876386,32.5757377 21.4508759,32.067949 20.7138995,31.3908873 C19.9462157,30.7446011 19.3320779,29.9290617 18.8714677,28.9442446 C18.4108574,27.9594275 18.1805557,26.7745873 18.1805557,25.3896882 L18.1805557,8.0323741 Z M22.8787569,25.3896882 C22.8787569,26.528383 23.1935025,27.3670037 23.8230032,27.9055755 C24.4525038,28.4441474 25.1971459,28.7134293 26.0569517,28.7134293 C26.9167575,28.7134293 27.6613996,28.4441474 28.2909003,27.9055755 C28.920401,27.3670037 29.2351466,26.528383 29.2351466,25.3896882 L29.2351466,8.0323741 C29.2351466,6.89367936 28.920401,6.05505865 28.2909003,5.51648681 C27.6613996,4.97791497 26.9167575,4.70863309 26.0569517,4.70863309 C25.1971459,4.70863309 24.4525038,4.97791497 23.8230032,5.51648681 C23.1935025,6.05505865 22.8787569,6.89367936 22.8787569,8.0323741 L22.8787569,25.3896882 Z M37.9941487,33.1450839 L37.9941487,0.276978417 L42.6923498,0.276978417 L42.6923498,28.4364508 L51.9966305,28.4364508 L51.9966305,33.1450839 L37.9941487,33.1450839 Z M54.9519724,33.1450839 L54.9519724,0.276978417 L61.9071525,0.276978417 C64.6093993,0.276978417 66.6590842,1.01558014 68.0562687,2.49280576 C69.4534531,3.97003137 70.1520349,6.06273626 70.1520349,8.77098321 L70.1520349,24.1432854 C70.1520349,27.2208387 69.4073928,29.4905003 67.9180863,30.9523381 C66.4287798,32.414176 64.2869742,33.1450839 61.4926053,33.1450839 L54.9519724,33.1450839 Z M59.6501735,4.70863309 L59.6501735,28.7134293 L61.8150309,28.7134293 C63.135447,28.7134293 64.0720071,28.3825972 64.6247394,27.7209233 C65.1774717,27.0592493 65.4538337,26.0205906 65.4538337,24.6049161 L65.4538337,8.77098321 C65.4538337,7.4784108 65.1928252,6.47822097 64.6708002,5.77038369 C64.1487753,5.06254642 63.1968617,4.70863309 61.8150309,4.70863309 L59.6501735,4.70863309 Z M74.627383,33.1450839 L74.627383,0.276978417 L79.3255841,0.276978417 L79.3255841,33.1450839 L74.627383,33.1450839 Z M83.6166891,33.1450839 L83.6166891,0.276978417 L88.130647,0.276978417 L95.2240095,20.0809353 L95.3161311,20.0809353 L95.3161311,0.276978417 L100.014332,0.276978417 L100.014332,33.1450839 L95.5924959,33.1450839 L88.4070118,13.3872902 L88.3148902,13.3872902 L88.3148902,33.1450839 L83.6166891,33.1450839 Z M103.89089,8.0323741 C103.89089,6.70902616 104.121192,5.53957342 104.581802,4.52398082 C105.042412,3.50838821 105.65655,2.66207373 106.424234,1.98501199 C107.16121,1.33872579 107.997973,0.846324634 108.934547,0.507793765 C109.871121,0.169262896 110.815358,-4.54747351e-13 111.767286,-4.54747351e-13 C112.719214,-4.54747351e-13 113.663451,0.169262896 114.600025,0.507793765 C115.536599,0.846324634 116.388715,1.33872579 117.156399,1.98501199 C117.893376,2.66207373 118.49216,3.50838821 118.95277,4.52398082 C119.41338,5.53957342 119.643682,6.70902616 119.643682,8.0323741 L119.643682,9.6942446 L114.945481,9.6942446 L114.945481,8.0323741 C114.945481,6.89367936 114.630735,6.05505865 114.001235,5.51648681 C113.371734,4.97791497 112.627092,4.70863309 111.767286,4.70863309 C110.90748,4.70863309 110.162838,4.97791497 109.533337,5.51648681 C108.903837,6.05505865 108.589091,6.89367936 108.589091,8.0323741 L108.589091,25.3896882 C108.589091,26.528383 108.903837,27.3670037 109.533337,27.9055755 C110.162838,28.4441474 110.90748,28.7134293 111.767286,28.7134293 C112.627092,28.7134293 113.371734,28.4441474 114.001235,27.9055755 C114.630735,27.3670037 114.945481,26.528383 114.945481,25.3896882 L114.945481,19.2038369 L111.214556,19.2038369 L111.214556,15.0491607 L119.643682,15.0491607 L119.643682,25.3896882 C119.643682,26.7745873 119.41338,27.9594275 118.95277,28.9442446 C118.49216,29.9290617 117.893376,30.7446011 117.156399,31.3908873 C116.388715,32.067949 115.536599,32.5757377 114.600025,32.9142686 C113.663451,33.2527995 112.719214,33.4220624 111.767286,33.4220624 C110.815358,33.4220624 109.871121,33.2527995 108.934547,32.9142686 C107.997973,32.5757377 107.16121,32.067949 106.424234,31.3908873 C105.65655,30.7446011 105.042412,29.9290617 104.581802,28.9442446 C104.121192,27.9594275 103.89089,26.7745873 103.89089,25.3896882 L103.89089,8.0323741 Z M22.3347275,50.2973621 C22.3347275,49.1922407 22.035435,48.2607952 21.4368411,47.5029976 C20.8382472,46.7452 19.9718742,46.366307 18.8376962,46.366307 C17.7980331,46.366307 16.8371467,46.6583704 15.9550083,47.242506 C15.0728698,47.8266416 14.3167625,48.5765342 13.6866636,49.4922062 C13.0250598,50.4078783 12.505236,51.4103663 12.1271767,52.4997002 C11.7491174,53.5890342 11.5600906,54.6230966 11.5600906,55.6019185 C11.5600906,56.9280642 11.9145159,57.9463394 12.6233771,58.6567746 C13.3322383,59.3672098 14.2852486,59.7224221 15.4824365,59.7224221 C16.3645749,59.7224221 17.2230717,59.4066778 18.0579528,58.7751799 C18.8928338,58.1436819 19.6253127,57.3543213 20.2554116,56.4070743 C20.8855105,55.4914023 21.389582,54.4810207 21.7676414,53.3758993 C22.1457007,52.2707778 22.3347275,51.2446091 22.3347275,50.2973621 Z M28.2891322,43.7613909 L24.1777575,56.7859712 C24.0202328,57.2280198 23.902091,57.6384873 23.8233287,58.0173861 C23.7445663,58.3962849 23.7051857,58.6962419 23.7051857,58.9172662 C23.7051857,59.3277399 23.7839469,59.6592713 23.9414716,59.9118705 C24.0989963,60.1644697 24.3825366,60.2907674 24.7921009,60.2907674 C25.5482195,60.2907674 26.3043268,59.9750231 27.0604455,59.3435252 C27.8165641,58.7120272 28.5096625,57.8910922 29.1397614,56.8806954 C29.7698603,55.8702987 30.2739318,54.7730875 30.6519911,53.5890288 C31.0300505,52.4049701 31.2190773,51.24461 31.2190773,50.1079137 C31.2190773,48.466019 30.8725281,46.9504466 30.1794193,45.5611511 C29.4863106,44.1718556 28.5569287,42.9720274 27.3912457,41.9616307 C26.2255628,40.951234 24.8866228,40.1776606 23.3743855,39.6408873 C21.8621482,39.104114 20.2554201,38.8357314 18.5541531,38.8357314 C16.5693417,38.8357314 14.718454,39.2225181 13.0014345,39.9961031 C11.2844151,40.7696881 9.76432434,41.8195377 8.4411167,43.1456835 C7.11790905,44.4718292 6.09401373,45.9874015 5.36940002,47.692446 C4.64478631,49.3974905 4.28248488,51.1656583 4.28248488,52.9970024 C4.28248488,54.9230712 4.65266242,56.730707 5.39302861,58.419964 C6.13339479,60.1092211 7.16516623,61.5695382 8.48837387,62.8009592 C9.81158152,64.0639552 11.3395484,65.0585495 13.0723203,65.7847722 C14.8050922,66.5109948 16.7111127,66.8741007 18.790439,66.8741007 C19.924617,66.8741007 21.058778,66.7399094 22.192956,66.4715228 C23.327134,66.2031361 24.398286,65.8479239 25.4064442,65.4058753 C26.4146024,64.9638267 27.3361082,64.4349551 28.1709892,63.8192446 C29.0058702,63.2035341 29.7068447,62.564152 30.2739337,61.9010791 L33.9127365,61.9010791 C33.1566179,63.1640751 32.2193599,64.3007543 31.1009343,65.3111511 C29.9825088,66.3215478 28.7617106,67.1740573 27.4385029,67.868705 C26.0837903,68.5633528 24.6424608,69.0922244 23.114471,69.4553357 C21.5864812,69.8184471 20.0191337,70 18.4123816,70 C15.954996,70 13.6472934,69.5658517 11.4892048,68.697542 C9.33111612,67.8292323 7.44872396,66.6215105 5.84197181,65.0743405 C4.23521967,63.5587454 2.9671647,61.743216 2.03776885,59.6276978 C1.108373,57.5121797 0.643682051,55.2230339 0.643682051,52.7601918 C0.643682051,50.3920745 1.11624912,48.1739712 2.06139744,46.1058153 C3.00654576,44.0376595 4.29822909,42.2300237 5.93648617,40.6828537 C7.54323832,39.1356837 9.42563048,37.9200684 11.5837191,37.0359712 C13.7418078,36.1518741 16.0495103,35.7098321 18.506896,35.7098321 C20.712242,35.7098321 22.8072894,36.0571508 24.7921009,36.7517986 C26.7769123,37.4464463 28.5254105,38.4252535 30.0376478,39.6882494 C31.5498851,40.9512453 32.7313028,42.4431369 33.5819363,44.1639688 C34.4325698,45.8848008 34.8578801,47.7871598 34.8578801,49.8711031 C34.8578801,51.8603217 34.4877026,53.6679575 33.7473364,55.2940647 C33.0069702,56.920172 32.0854644,58.3015531 30.9827914,59.4382494 C29.8801184,60.6065206 28.7065768,61.5142853 27.4621315,62.1615707 C26.2176862,62.8088562 25.0914014,63.132494 24.0832432,63.132494 C23.0120751,63.132494 22.1614543,62.8877922 21.5313555,62.3983813 C20.9012566,61.9089704 20.5232029,61.1590778 20.3971832,60.1486811 L20.3026688,60.1486811 C19.9561144,60.5275798 19.6016891,60.8906857 19.2393822,61.2380096 C18.8770754,61.5853335 18.4753934,61.9010777 18.0343242,62.1852518 C17.56175,62.4694259 17.0419262,62.6983405 16.4748372,62.8720024 C15.9077482,63.0456643 15.2619066,63.132494 14.5372929,63.132494 C13.5291347,63.132494 12.6076289,62.9430475 11.7727479,62.5641487 C10.9378668,62.1852499 10.2211401,61.6642719 9.62254619,61.001199 C8.39385337,59.6119035 7.77951618,57.9226718 7.77951618,55.9334532 C7.77951618,54.3862832 8.04730419,52.8391364 8.58288823,51.2919664 C9.11847228,49.7447964 9.8745796,48.3555217 10.8512329,47.1241007 C11.7963812,45.8926797 12.9384183,44.8901917 14.2773784,44.1166067 C15.6163385,43.3430217 17.1364292,42.956235 18.8376962,42.956235 C19.9403693,42.956235 21.0036452,43.2404048 22.0275558,43.808753 C23.0514665,44.3771012 23.7996977,45.3243339 24.2722719,46.6504796 L24.3667862,46.6504796 L25.3119298,43.7613909 L28.2891322,43.7613909 Z M38.0790129,69.7158273 L38.0790129,35.9940048 L42.8992452,35.9940048 L42.8992452,50.4394484 L48.8536498,50.4394484 L48.8536498,35.9940048 L53.6738821,35.9940048 L53.6738821,69.7158273 L48.8536498,69.7158273 L48.8536498,54.7020384 L42.8992452,54.7020384 L42.8992452,69.7158273 L38.0790129,69.7158273 Z M57.8401585,43.9508393 C57.8401585,42.5931187 58.076442,41.3932906 58.5490162,40.3513189 C59.0215903,39.3093473 59.6516798,38.4410506 60.4393034,37.7464029 C61.195422,37.08333 62.0539189,36.5781392 63.0148196,36.2308153 C63.9757204,35.8834915 64.9444829,35.7098321 65.9211362,35.7098321 C66.8977895,35.7098321 67.866552,35.8834915 68.8274527,36.2308153 C69.7883535,36.5781392 70.6626026,37.08333 71.4502262,37.7464029 C72.2063449,38.4410506 72.8206821,39.3093473 73.2932562,40.3513189 C73.7658304,41.3932906 74.0021139,42.5931187 74.0021139,43.9508393 L74.0021139,61.7589928 C74.0021139,63.1798632 73.7658304,64.3954786 73.2932562,65.4058753 C72.8206821,66.416272 72.2063449,67.2529943 71.4502262,67.9160671 C70.6626026,68.6107149 69.7883535,69.1316929 68.8274527,69.4790168 C67.866552,69.8263407 66.8977895,70 65.9211362,70 C64.9444829,70 63.9757204,69.8263407 63.0148196,69.4790168 C62.0539189,69.1316929 61.195422,68.6107149 60.4393034,67.9160671 C59.6516798,67.2529943 59.0215903,66.416272 58.5490162,65.4058753 C58.076442,64.3954786 57.8401585,63.1798632 57.8401585,61.7589928 L57.8401585,43.9508393 Z M62.6603908,61.7589928 C62.6603908,62.927264 62.9833116,63.7876671 63.629163,64.3402278 C64.2750143,64.8927885 65.0389978,65.1690647 65.9211362,65.1690647 C66.8032746,65.1690647 67.5672581,64.8927885 68.2131094,64.3402278 C68.8589608,63.7876671 69.1818816,62.927264 69.1818816,61.7589928 L69.1818816,43.9508393 C69.1818816,42.7825681 68.8589608,41.922165 68.2131094,41.3696043 C67.5672581,40.8170436 66.8032746,40.5407674 65.9211362,40.5407674 C65.0389978,40.5407674 64.2750143,40.8170436 63.629163,41.3696043 C62.9833116,41.922165 62.6603908,42.7825681 62.6603908,43.9508393 L62.6603908,61.7589928 Z M78.1683902,69.7158273 L78.1683902,35.9940048 L82.7995939,35.9940048 L88.9902844,53.8495204 L89.0847987,53.8495204 L95.2282321,35.9940048 L99.9066929,35.9940048 L99.9066929,69.7158273 L95.0864606,69.7158273 L95.0864606,49.2080336 L94.9919462,49.2080336 L90.2189711,63.7008393 L87.8088549,63.7008393 L83.0831369,49.2080336 L82.9886226,49.2080336 L82.9886226,69.7158273 L78.1683902,69.7158273 Z M104.356512,69.7158273 L104.356512,35.9940048 L118.722695,35.9940048 L118.722695,40.5407674 L109.176745,40.5407674 L109.176745,50.4394484 L117.494008,50.4394484 L117.494008,54.986211 L109.176745,54.986211 L109.176745,64.8848921 L118.722695,64.8848921 L118.722695,69.7158273 L104.356512,69.7158273 Z" id="Combined-Shape" fill="#47494F"></path>
    </g>
</svg>