<?xml version="1.0" encoding="UTF-8"?>
<svg width="120px" height="70px" viewBox="0 0 120 70" version="1.1" xmlns="http://www.w3.org/2000/svg" xmlns:xlink="http://www.w3.org/1999/xlink">
    <!-- Generator: Sketch 53.2 (72643) - https://sketchapp.com -->
    <title>Group 13</title>
    <desc>Created with Sketch.</desc>
    <g id="Page-1" stroke="none" stroke-width="1" fill="none" fill-rule="evenodd">
        <g id="Group-13" transform="translate(0.643682, 0.000000)">
            <path d="M0.855414771,33.1450839 L0.855414771,0.276978417 L14.8578966,0.276978417 L14.8578966,4.70863309 L5.5536159,4.70863309 L5.5536159,14.6798561 L13.6603159,14.6798561 L13.6603159,19.1115108 L5.5536159,19.1115108 L5.5536159,33.1450839 L0.855414771,33.1450839 Z M17.5368737,8.0323741 C17.5368737,6.70902616 17.7671754,5.53957342 18.2277856,4.52398082 C18.6883959,3.50838821 19.3025337,2.66207373 20.0702174,1.98501199 C20.8071938,1.33872579 21.6439566,0.846324634 22.5805308,0.507793765 C23.517105,0.169262896 24.4613418,0 25.4132697,0 C26.3651976,0 27.3094344,0.169262896 28.2460086,0.507793765 C29.1825828,0.846324634 30.034699,1.33872579 30.8023827,1.98501199 C31.5393592,2.66207373 32.1381435,3.50838821 32.5987538,4.52398082 C33.059364,5.53957342 33.2896657,6.70902616 33.2896657,8.0323741 L33.2896657,25.3896882 C33.2896657,26.7745873 33.059364,27.9594275 32.5987538,28.9442446 C32.1381435,29.9290617 31.5393592,30.7446011 30.8023827,31.3908873 C30.034699,32.067949 29.1825828,32.5757377 28.2460086,32.9142686 C27.3094344,33.2527995 26.3651976,33.4220624 25.4132697,33.4220624 C24.4613418,33.4220624 23.517105,33.2527995 22.5805308,32.9142686 C21.6439566,32.5757377 20.8071938,32.067949 20.0702174,31.3908873 C19.3025337,30.7446011 18.6883959,29.9290617 18.2277856,28.9442446 C17.7671754,27.9594275 17.5368737,26.7745873 17.5368737,25.3896882 L17.5368737,8.0323741 Z M22.2350748,25.3896882 C22.2350748,26.528383 22.5498204,27.3670037 23.1793211,27.9055755 C23.8088218,28.4441474 24.5534639,28.7134293 25.4132697,28.7134293 C26.2730755,28.7134293 27.0177176,28.4441474 27.6472183,27.9055755 C28.2767189,27.3670037 28.5914646,26.528383 28.5914646,25.3896882 L28.5914646,8.0323741 C28.5914646,6.89367936 28.2767189,6.05505865 27.6472183,5.51648681 C27.0177176,4.97791497 26.2730755,4.70863309 25.4132697,4.70863309 C24.5534639,4.70863309 23.8088218,4.97791497 23.1793211,5.51648681 C22.5498204,6.05505865 22.2350748,6.89367936 22.2350748,8.0323741 L22.2350748,25.3896882 Z M37.3504667,33.1450839 L37.3504667,0.276978417 L42.0486678,0.276978417 L42.0486678,28.4364508 L51.3529485,28.4364508 L51.3529485,33.1450839 L37.3504667,33.1450839 Z M54.3082904,33.1450839 L54.3082904,0.276978417 L61.2634705,0.276978417 C63.9657173,0.276978417 66.0154022,1.01558014 67.4125866,2.49280576 C68.8097711,3.97003137 69.5083528,6.06273626 69.5083528,8.77098321 L69.5083528,24.1432854 C69.5083528,27.2208387 68.7637107,29.4905003 67.2744042,30.9523381 C65.7850978,32.414176 63.6432922,33.1450839 60.8489233,33.1450839 L54.3082904,33.1450839 Z M59.0064915,4.70863309 L59.0064915,28.7134293 L61.1713489,28.7134293 C62.4917649,28.7134293 63.4283251,28.3825972 63.9810574,27.7209233 C64.5337897,27.0592493 64.8101517,26.0205906 64.8101517,24.6049161 L64.8101517,8.77098321 C64.8101517,7.4784108 64.5491431,6.47822097 64.0271182,5.77038369 C63.5050932,5.06254642 62.5531796,4.70863309 61.1713489,4.70863309 L59.0064915,4.70863309 Z M73.983701,33.1450839 L73.983701,0.276978417 L78.6819021,0.276978417 L78.6819021,33.1450839 L73.983701,33.1450839 Z M82.973007,33.1450839 L82.973007,0.276978417 L87.486965,0.276978417 L94.5803275,20.0809353 L94.6724491,20.0809353 L94.6724491,0.276978417 L99.3706502,0.276978417 L99.3706502,33.1450839 L94.9488138,33.1450839 L87.7633298,13.3872902 L87.6712082,13.3872902 L87.6712082,33.1450839 L82.973007,33.1450839 Z M103.247208,8.0323741 C103.247208,6.70902616 103.47751,5.53957342 103.93812,4.52398082 C104.39873,3.50838821 105.012868,2.66207373 105.780552,1.98501199 C106.517528,1.33872579 107.354291,0.846324634 108.290865,0.507793765 C109.227439,0.169262896 110.171676,0 111.123604,0 C112.075532,0 113.019769,0.169262896 113.956343,0.507793765 C114.892917,0.846324634 115.745033,1.33872579 116.512717,1.98501199 C117.249693,2.66207373 117.848478,3.50838821 118.309088,4.52398082 C118.769698,5.53957342 119,6.70902616 119,8.0323741 L119,9.6942446 L114.301799,9.6942446 L114.301799,8.0323741 C114.301799,6.89367936 113.987053,6.05505865 113.357553,5.51648681 C112.728052,4.97791497 111.98341,4.70863309 111.123604,4.70863309 C110.263798,4.70863309 109.519156,4.97791497 108.889655,5.51648681 C108.260155,6.05505865 107.945409,6.89367936 107.945409,8.0323741 L107.945409,25.3896882 C107.945409,26.528383 108.260155,27.3670037 108.889655,27.9055755 C109.519156,28.4441474 110.263798,28.7134293 111.123604,28.7134293 C111.98341,28.7134293 112.728052,28.4441474 113.357553,27.9055755 C113.987053,27.3670037 114.301799,26.528383 114.301799,25.3896882 L114.301799,19.2038369 L110.570874,19.2038369 L110.570874,15.0491607 L119,15.0491607 L119,25.3896882 C119,26.7745873 118.769698,27.9594275 118.309088,28.9442446 C117.848478,29.9290617 117.249693,30.7446011 116.512717,31.3908873 C115.745033,32.067949 114.892917,32.5757377 113.956343,32.9142686 C113.019769,33.2527995 112.075532,33.4220624 111.123604,33.4220624 C110.171676,33.4220624 109.227439,33.2527995 108.290865,32.9142686 C107.354291,32.5757377 106.517528,32.067949 105.780552,31.3908873 C105.012868,30.7446011 104.39873,29.9290617 103.93812,28.9442446 C103.47751,27.9594275 103.247208,26.7745873 103.247208,25.3896882 L103.247208,8.0323741 Z M37.4353308,69.7158273 L37.4353308,35.9940048 L42.2555631,35.9940048 L42.2555631,50.4394484 L48.2099678,50.4394484 L48.2099678,35.9940048 L53.0302001,35.9940048 L53.0302001,69.7158273 L48.2099678,69.7158273 L48.2099678,54.7020384 L42.2555631,54.7020384 L42.2555631,69.7158273 L37.4353308,69.7158273 Z M57.1964764,43.9508393 C57.1964764,42.5931187 57.43276,41.3932906 57.9053341,40.3513189 C58.3779083,39.3093473 59.0079977,38.4410506 59.7956213,37.7464029 C60.55174,37.08333 61.4102368,36.5781392 62.3711376,36.2308153 C63.3320384,35.8834915 64.3008009,35.7098321 65.2774541,35.7098321 C66.2541074,35.7098321 67.2228699,35.8834915 68.1837707,36.2308153 C69.1446715,36.5781392 70.0189206,37.08333 70.8065442,37.7464029 C71.5626628,38.4410506 72.177,39.3093473 72.6495742,40.3513189 C73.1221483,41.3932906 73.3584319,42.5931187 73.3584319,43.9508393 L73.3584319,61.7589928 C73.3584319,63.1798632 73.1221483,64.3954786 72.6495742,65.4058753 C72.177,66.416272 71.5626628,67.2529943 70.8065442,67.9160671 C70.0189206,68.6107149 69.1446715,69.1316929 68.1837707,69.4790168 C67.2228699,69.8263407 66.2541074,70 65.2774541,70 C64.3008009,70 63.3320384,69.8263407 62.3711376,69.4790168 C61.4102368,69.1316929 60.55174,68.6107149 59.7956213,67.9160671 C59.0079977,67.2529943 58.3779083,66.416272 57.9053341,65.4058753 C57.43276,64.3954786 57.1964764,63.1798632 57.1964764,61.7589928 L57.1964764,43.9508393 Z M62.0167087,61.7589928 C62.0167087,62.927264 62.3396296,63.7876671 62.9854809,64.3402278 C63.6313323,64.8927885 64.3953157,65.1690647 65.2774541,65.1690647 C66.1595926,65.1690647 66.923576,64.8927885 67.5694274,64.3402278 C68.2152787,63.7876671 68.5381995,62.927264 68.5381995,61.7589928 L68.5381995,43.9508393 C68.5381995,42.7825681 68.2152787,41.922165 67.5694274,41.3696043 C66.923576,40.8170436 66.1595926,40.5407674 65.2774541,40.5407674 C64.3953157,40.5407674 63.6313323,40.8170436 62.9854809,41.3696043 C62.3396296,41.922165 62.0167087,42.7825681 62.0167087,43.9508393 L62.0167087,61.7589928 Z M77.5247082,69.7158273 L77.5247082,35.9940048 L82.1559118,35.9940048 L88.3466023,53.8495204 L88.4411167,53.8495204 L94.5845501,35.9940048 L99.2630108,35.9940048 L99.2630108,69.7158273 L94.4427785,69.7158273 L94.4427785,49.2080336 L94.3482642,49.2080336 L89.575289,63.7008393 L87.1651728,63.7008393 L82.4394549,49.2080336 L82.3449405,49.2080336 L82.3449405,69.7158273 L77.5247082,69.7158273 Z M103.71283,69.7158273 L103.71283,35.9940048 L118.079013,35.9940048 L118.079013,40.5407674 L108.533063,40.5407674 L108.533063,50.4394484 L116.850326,50.4394484 L116.850326,54.986211 L108.533063,54.986211 L108.533063,64.8848921 L118.079013,64.8848921 L118.079013,69.7158273 L103.71283,69.7158273 Z" id="Combined-Shape" fill="#47494F"></path>
            <path d="M27.6454501,43.7613909 L23.5340755,56.7859712 C23.3765508,57.2280198 23.258409,57.6384873 23.1796466,58.0173861 C23.1008843,58.3962849 23.0615037,58.6962419 23.0615037,58.9172662 C23.0615037,59.3277399 23.1402649,59.6592713 23.2977896,59.9118705 C23.4553143,60.1644697 23.7388545,60.2907674 24.1484188,60.2907674 C24.9045375,60.2907674 25.6606448,59.9750231 26.4167634,59.3435252 C27.1728821,58.7120272 27.8659805,57.8910922 28.4960793,56.8806954 C29.1261782,55.8702987 29.6302498,54.7730875 30.0083091,53.5890288 C30.3863684,52.4049701 30.5753952,51.24461 30.5753952,50.1079137 C30.5753952,48.466019 30.2288461,46.9504466 29.5357373,45.5611511 C28.8426285,44.1718556 27.9132466,42.9720274 26.7475637,41.9616307 C25.5818808,40.951234 24.2429407,40.1776606 22.7307034,39.6408873 C21.2184661,39.104114 19.6117381,38.8357314 17.9104711,38.8357314 C15.9256596,38.8357314 14.0747719,39.2225181 12.3577525,39.9961031 C10.640733,40.7696881 9.12064229,41.8195377 7.79743464,43.1456835 C6.474227,44.4718292 5.45033168,45.9874015 4.72571797,47.692446 C4.00110426,49.3974905 3.63880283,51.1656583 3.63880283,52.9970024 C3.63880283,54.9230712 4.00898037,56.730707 4.74934656,58.419964 C5.48971274,60.1092211 6.52148418,61.5695382 7.84469182,62.8009592 C9.16789947,64.0639552 10.6958663,65.0585495 12.4286383,65.7847722 C14.1614102,66.5109948 16.0674307,66.8741007 18.146757,66.8741007 C19.280935,66.8741007 20.4150959,66.7399094 21.5492739,66.4715228 C22.6834519,66.2031361 23.7546039,65.8479239 24.7627621,65.4058753 C25.7709204,64.9638267 26.6924261,64.4349551 27.5273072,63.8192446 C28.3621882,63.2035341 29.0631627,62.564152 29.6302516,61.9010791 L33.2690545,61.9010791 C32.5129358,63.1640751 31.5756778,64.3007543 30.4572523,65.3111511 C29.3388268,66.3215478 28.1180285,67.1740573 26.7948209,67.868705 C25.4401083,68.5633528 23.9987787,69.0922244 22.4707889,69.4553357 C20.9427991,69.8184471 19.3754517,70 17.7686996,70 C15.3113139,70 13.0036114,69.5658517 10.8455227,68.697542 C8.68743407,67.8292323 6.80504191,66.6215105 5.19828976,65.0743405 C3.59153762,63.5587454 2.32348265,61.743216 1.3940868,59.6276978 C0.464690953,57.5121797 5.32907052e-14,55.2230339 5.32907052e-14,52.7601918 C5.32907052e-14,50.3920745 0.472567071,48.1739712 1.41771539,46.1058153 C2.36286371,44.0376595 3.65454704,42.2300237 5.29280412,40.6828537 C6.89955626,39.1356837 8.78194843,37.9200684 10.9400371,37.0359712 C13.0981258,36.1518741 15.4058283,35.7098321 17.8632139,35.7098321 C20.06856,35.7098321 22.1636073,36.0571508 24.1484188,36.7517986 C26.1332303,37.4464463 27.8817284,38.4252535 29.3939658,39.6882494 C30.9062031,40.9512453 32.0876207,42.4431369 32.9382542,44.1639688 C33.7888877,45.8848008 34.2141981,47.7871598 34.2141981,49.8711031 C34.2141981,51.8603217 33.8440205,53.6679575 33.1036544,55.2940647 C32.3632882,56.920172 31.4417824,58.3015531 30.3391093,59.4382494 C29.2364363,60.6065206 28.0628947,61.5142853 26.8184495,62.1615707 C25.5740042,62.8088562 24.4477193,63.132494 23.4395611,63.132494 C22.368393,63.132494 21.5177723,62.8877922 20.8876734,62.3983813 C20.2575745,61.9089704 19.8795209,61.1590778 19.7535011,60.1486811 L19.6589867,60.1486811 C19.3124324,60.5275798 18.9580071,60.8906857 18.5957002,61.2380096 C18.2333933,61.5853335 17.8317113,61.9010777 17.3906421,62.1852518 C16.918068,62.4694259 16.3982442,62.6983405 15.8311552,62.8720024 C15.2640662,63.0456643 14.6182245,63.132494 13.8936108,63.132494 C12.8854526,63.132494 11.9639468,62.9430475 11.1290658,62.5641487 C10.2941848,62.1852499 9.57745807,61.6642719 8.97886414,61.001199 C7.75017132,59.6119035 7.13583413,57.9226718 7.13583413,55.9334532 C7.13583413,54.3862832 7.40362214,52.8391364 7.93920618,51.2919664 C8.47479023,49.7447964 9.23089754,48.3555217 10.2075508,47.1241007 C11.1526991,45.8926797 12.2947362,44.8901917 13.6336963,44.1166067 C14.9726565,43.3430217 16.4927472,42.956235 18.1940142,42.956235 C19.2966872,42.956235 20.3599631,43.2404048 21.3838738,43.808753 C22.4077845,44.3771012 23.1560157,45.3243339 23.6285898,46.6504796 L23.7231042,46.6504796 L24.6682478,43.7613909 L27.6454501,43.7613909 Z M21.6910455,50.2973621 C21.6910455,49.1922407 21.391753,48.2607952 20.7931591,47.5029976 C20.1945651,46.7452 19.3281922,46.366307 18.1940142,46.366307 C17.154351,46.366307 16.1934646,46.6583704 15.3113262,47.242506 C14.4291878,47.8266416 13.6730805,48.5765342 13.0429816,49.4922062 C12.3813778,50.4078783 11.861554,51.4103663 11.4834947,52.4997002 C11.1054353,53.5890342 10.9164085,54.6230966 10.9164085,55.6019185 C10.9164085,56.9280642 11.2708338,57.9463394 11.979695,58.6567746 C12.6885563,59.3672098 13.6415665,59.7224221 14.8387544,59.7224221 C15.7208928,59.7224221 16.5793897,59.4066778 17.4142707,58.7751799 C18.2491517,58.1436819 18.9816307,57.3543213 19.6117296,56.4070743 C20.2418284,55.4914023 20.7459,54.4810207 21.1239593,53.3758993 C21.5020186,52.2707778 21.6910455,51.2446091 21.6910455,50.2973621 Z" id="Combined-Shape" fill="#FD8105"></path>
        </g>
    </g>
</svg>